# MagicaVoxel @ Ephtracy

# group
o Light Post

# material
mtllib Trainvasion Moterman-5-Light Post.mtl
usemtl palette

# normals
vn -1 0 0
vn 1 0 0
vn 0 0 1
vn 0 0 -1
vn 0 -1 0
vn 0 1 0

# texcoords
vt 0.0175781 0.5
vt 0.982422 0.5
vt 0.990234 0.5
vt 0.994141 0.5

# verts
v -3.7 0 0.3
v -3.7 0 -0.2
v -3.7 0.1 0.3
v -3.7 0.1 -0.2
v -3.7 5.4 1.9
v -3.7 5.4 1.2
v -3.7 5.5 1.9
v -3.7 5.5 1.2
v -3.6 0 0.4
v -3.6 0 0.3
v -3.6 0 -0.2
v -3.6 0 -0.3
v -3.6 0.1 0.4
v -3.6 0.1 0.3
v -3.6 0.1 0.0999999
v -3.6 0.1 -2.38419e-07
v -3.6 0.1 -0.2
v -3.6 0.1 -0.3
v -3.6 0.2 0.0999999
v -3.6 0.2 -2.38419e-07
v -3.6 5.2 1.7
v -3.6 5.2 1.4
v -3.6 5.3 1.8
v -3.6 5.3 1.7
v -3.6 5.3 1.4
v -3.6 5.3 1.3
v -3.6 5.4 2
v -3.6 5.4 1.9
v -3.6 5.4 1.8
v -3.6 5.4 1.3
v -3.6 5.4 1.2
v -3.6 5.4 1.1
v -3.6 5.5 2
v -3.6 5.5 1.9
v -3.6 5.5 1.8
v -3.6 5.5 1.3
v -3.6 5.5 1.2
v -3.6 5.5 1.1
v -3.6 5.6 1.8
v -3.6 5.6 1.3
v -3.5 0.1 0.2
v -3.5 0.1 0.0999999
v -3.5 0.1 -2.38419e-07
v -3.5 0.1 -0.1
v -3.5 0.2 0.2
v -3.5 0.2 0.0999999
v -3.5 0.2 -2.38419e-07
v -3.5 0.2 -0.1
v -3.5 5.2 1.8
v -3.5 5.2 1.7
v -3.5 5.2 1.4
v -3.5 5.2 1.3
v -3.5 5.2 0.2
v -3.5 5.2 0.0999999
v -3.5 5.3 1.9
v -3.5 5.3 1.8
v -3.5 5.3 1.7
v -3.5 5.3 1.4
v -3.5 5.3 1.3
v -3.5 5.3 1.2
v -3.5 5.3 0.3
v -3.5 5.3 0.2
v -3.5 5.3 0.0999999
v -3.5 5.3 -2.38419e-07
v -3.5 5.4 1.9
v -3.5 5.4 1.8
v -3.5 5.4 1.3
v -3.5 5.4 1.2
v -3.5 5.4 1.1
v -3.5 5.4 0.3
v -3.5 5.4 0.2
v -3.5 5.4 0.0999999
v -3.5 5.5 1.1
v -3.5 5.5 0.2
v -3.5 5.6 1.7
v -3.5 5.6 1.4
v -3.5 5.7 1.7
v -3.5 5.7 1.4
v -3.3 0.1 0.2
v -3.3 0.1 0.0999999
v -3.3 0.1 -2.38419e-07
v -3.3 0.1 -0.1
v -3.3 0.2 0.2
v -3.3 0.2 0.0999999
v -3.3 0.2 -2.38419e-07
v -3.3 0.2 -0.1
v -3.3 5.2 1.8
v -3.3 5.2 1.7
v -3.3 5.2 1.4
v -3.3 5.2 1.3
v -3.3 5.2 0.2
v -3.3 5.2 0.0999999
v -3.3 5.3 1.9
v -3.3 5.3 1.8
v -3.3 5.3 1.7
v -3.3 5.3 1.4
v -3.3 5.3 1.3
v -3.3 5.3 1.2
v -3.3 5.3 0.3
v -3.3 5.3 0.2
v -3.3 5.3 0.0999999
v -3.3 5.3 -2.38419e-07
v -3.3 5.4 1.9
v -3.3 5.4 1.8
v -3.3 5.4 1.3
v -3.3 5.4 1.2
v -3.3 5.4 1.1
v -3.3 5.4 0.3
v -3.3 5.4 0.2
v -3.3 5.4 0.0999999
v -3.3 5.5 1.1
v -3.3 5.5 0.2
v -3.3 5.6 1.7
v -3.3 5.6 1.4
v -3.3 5.7 1.7
v -3.3 5.7 1.4
v -3.2 0 0.4
v -3.2 0 0.3
v -3.2 0 -0.2
v -3.2 0 -0.3
v -3.2 0.1 0.4
v -3.2 0.1 0.3
v -3.2 0.1 0.0999999
v -3.2 0.1 -2.38419e-07
v -3.2 0.1 -0.2
v -3.2 0.1 -0.3
v -3.2 0.2 0.0999999
v -3.2 0.2 -2.38419e-07
v -3.2 5.2 1.7
v -3.2 5.2 1.4
v -3.2 5.3 1.8
v -3.2 5.3 1.7
v -3.2 5.3 1.4
v -3.2 5.3 1.3
v -3.2 5.4 2
v -3.2 5.4 1.9
v -3.2 5.4 1.8
v -3.2 5.4 1.3
v -3.2 5.4 1.2
v -3.2 5.4 1.1
v -3.2 5.5 2
v -3.2 5.5 1.9
v -3.2 5.5 1.8
v -3.2 5.5 1.3
v -3.2 5.5 1.2
v -3.2 5.5 1.1
v -3.2 5.6 1.8
v -3.2 5.6 1.3
v -3.1 0 0.3
v -3.1 0 -0.2
v -3.1 0.1 0.3
v -3.1 0.1 -0.2
v -3.1 5.4 1.9
v -3.1 5.4 1.2
v -3.1 5.5 1.9
v -3.1 5.5 1.2
v -3.6 5.4 2
v -3.6 5.5 2
v -3.2 5.4 2
v -3.2 5.5 2
v -3.7 5.4 1.9
v -3.7 5.5 1.9
v -3.6 5.4 1.9
v -3.6 5.5 1.9
v -3.5 5.3 1.9
v -3.5 5.4 1.9
v -3.3 5.3 1.9
v -3.3 5.4 1.9
v -3.2 5.4 1.9
v -3.2 5.5 1.9
v -3.1 5.4 1.9
v -3.1 5.5 1.9
v -3.6 5.3 1.8
v -3.6 5.4 1.8
v -3.6 5.5 1.8
v -3.6 5.6 1.8
v -3.5 5.2 1.8
v -3.5 5.3 1.8
v -3.5 5.4 1.8
v -3.3 5.2 1.8
v -3.3 5.3 1.8
v -3.3 5.4 1.8
v -3.2 5.3 1.8
v -3.2 5.4 1.8
v -3.2 5.5 1.8
v -3.2 5.6 1.8
v -3.6 5.2 1.7
v -3.6 5.3 1.7
v -3.5 5.2 1.7
v -3.5 5.3 1.7
v -3.5 5.6 1.7
v -3.5 5.7 1.7
v -3.3 5.2 1.7
v -3.3 5.3 1.7
v -3.3 5.6 1.7
v -3.3 5.7 1.7
v -3.2 5.2 1.7
v -3.2 5.3 1.7
v -3.6 0 0.4
v -3.6 0.1 0.4
v -3.2 0 0.4
v -3.2 0.1 0.4
v -3.7 0 0.3
v -3.7 0.1 0.3
v -3.6 0 0.3
v -3.6 0.1 0.3
v -3.5 5.3 0.3
v -3.5 5.4 0.3
v -3.3 5.3 0.3
v -3.3 5.4 0.3
v -3.2 0 0.3
v -3.2 0.1 0.3
v -3.1 0 0.3
v -3.1 0.1 0.3
v -3.5 0.1 0.2
v -3.5 0.2 0.2
v -3.5 5.2 0.2
v -3.5 5.3 0.2
v -3.3 0.1 0.2
v -3.3 0.2 0.2
v -3.3 5.2 0.2
v -3.3 5.3 0.2
v -3.6 0.1 0.0999999
v -3.6 0.2 0.0999999
v -3.5 0.1 0.0999999
v -3.5 0.2 0.0999999
v -3.5 5.2 0.0999999
v -3.3 0.1 0.0999999
v -3.3 0.2 0.0999999
v -3.3 5.2 0.0999999
v -3.2 0.1 0.0999999
v -3.2 0.2 0.0999999
v -3.6 5.2 1.4
v -3.6 5.3 1.4
v -3.5 5.2 1.4
v -3.5 5.3 1.4
v -3.5 5.6 1.4
v -3.5 5.7 1.4
v -3.3 5.2 1.4
v -3.3 5.3 1.4
v -3.3 5.6 1.4
v -3.3 5.7 1.4
v -3.2 5.2 1.4
v -3.2 5.3 1.4
v -3.6 5.3 1.3
v -3.6 5.4 1.3
v -3.6 5.5 1.3
v -3.6 5.6 1.3
v -3.5 5.2 1.3
v -3.5 5.3 1.3
v -3.5 5.4 1.3
v -3.3 5.2 1.3
v -3.3 5.3 1.3
v -3.3 5.4 1.3
v -3.2 5.3 1.3
v -3.2 5.4 1.3
v -3.2 5.5 1.3
v -3.2 5.6 1.3
v -3.7 5.4 1.2
v -3.7 5.5 1.2
v -3.6 5.4 1.2
v -3.6 5.5 1.2
v -3.5 5.3 1.2
v -3.5 5.4 1.2
v -3.3 5.3 1.2
v -3.3 5.4 1.2
v -3.2 5.4 1.2
v -3.2 5.5 1.2
v -3.1 5.4 1.2
v -3.1 5.5 1.2
v -3.6 5.4 1.1
v -3.6 5.5 1.1
v -3.5 5.4 1.1
v -3.5 5.5 1.1
v -3.3 5.4 1.1
v -3.3 5.5 1.1
v -3.2 5.4 1.1
v -3.2 5.5 1.1
v -3.5 5.4 0.2
v -3.5 5.5 0.2
v -3.3 5.4 0.2
v -3.3 5.5 0.2
v -3.5 5.3 0.0999999
v -3.5 5.4 0.0999999
v -3.3 5.3 0.0999999
v -3.3 5.4 0.0999999
v -3.6 0.1 -2.38419e-07
v -3.6 0.2 -2.38419e-07
v -3.5 0.1 -2.38419e-07
v -3.5 0.2 -2.38419e-07
v -3.5 5.3 -2.38419e-07
v -3.3 0.1 -2.38419e-07
v -3.3 0.2 -2.38419e-07
v -3.3 5.3 -2.38419e-07
v -3.2 0.1 -2.38419e-07
v -3.2 0.2 -2.38419e-07
v -3.5 0.1 -0.1
v -3.5 0.2 -0.1
v -3.3 0.1 -0.1
v -3.3 0.2 -0.1
v -3.7 0 -0.2
v -3.7 0.1 -0.2
v -3.6 0 -0.2
v -3.6 0.1 -0.2
v -3.2 0 -0.2
v -3.2 0.1 -0.2
v -3.1 0 -0.2
v -3.1 0.1 -0.2
v -3.6 0 -0.3
v -3.6 0.1 -0.3
v -3.2 0 -0.3
v -3.2 0.1 -0.3
v -3.6 0 0.4
v -3.2 0 0.4
v -3.7 0 0.3
v -3.6 0 0.3
v -3.2 0 0.3
v -3.1 0 0.3
v -3.7 0 -0.2
v -3.6 0 -0.2
v -3.2 0 -0.2
v -3.1 0 -0.2
v -3.6 0 -0.3
v -3.2 0 -0.3
v -3.5 5.2 1.8
v -3.3 5.2 1.8
v -3.6 5.2 1.7
v -3.5 5.2 1.7
v -3.3 5.2 1.7
v -3.2 5.2 1.7
v -3.6 5.2 1.4
v -3.5 5.2 1.4
v -3.3 5.2 1.4
v -3.2 5.2 1.4
v -3.5 5.2 1.3
v -3.3 5.2 1.3
v -3.5 5.2 0.2
v -3.3 5.2 0.2
v -3.5 5.2 0.0999999
v -3.3 5.2 0.0999999
v -3.5 5.3 1.9
v -3.3 5.3 1.9
v -3.6 5.3 1.8
v -3.5 5.3 1.8
v -3.3 5.3 1.8
v -3.2 5.3 1.8
v -3.6 5.3 1.7
v -3.5 5.3 1.7
v -3.3 5.3 1.7
v -3.2 5.3 1.7
v -3.6 5.3 1.4
v -3.5 5.3 1.4
v -3.3 5.3 1.4
v -3.2 5.3 1.4
v -3.6 5.3 1.3
v -3.5 5.3 1.3
v -3.3 5.3 1.3
v -3.2 5.3 1.3
v -3.5 5.3 1.2
v -3.3 5.3 1.2
v -3.5 5.3 0.3
v -3.3 5.3 0.3
v -3.5 5.3 0.2
v -3.3 5.3 0.2
v -3.6 5.4 2
v -3.2 5.4 2
v -3.7 5.4 1.9
v -3.6 5.4 1.9
v -3.5 5.4 1.9
v -3.3 5.4 1.9
v -3.2 5.4 1.9
v -3.1 5.4 1.9
v -3.6 5.4 1.8
v -3.5 5.4 1.8
v -3.3 5.4 1.8
v -3.2 5.4 1.8
v -3.6 5.4 1.3
v -3.5 5.4 1.3
v -3.3 5.4 1.3
v -3.2 5.4 1.3
v -3.7 5.4 1.2
v -3.6 5.4 1.2
v -3.5 5.4 1.2
v -3.3 5.4 1.2
v -3.2 5.4 1.2
v -3.1 5.4 1.2
v -3.6 5.4 1.1
v -3.5 5.4 1.1
v -3.3 5.4 1.1
v -3.2 5.4 1.1
v -3.5 5.4 0.3
v -3.3 5.4 0.3
v -3.6 0.1 0.4
v -3.2 0.1 0.4
v -3.7 0.1 0.3
v -3.6 0.1 0.3
v -3.2 0.1 0.3
v -3.1 0.1 0.3
v -3.5 0.1 0.2
v -3.3 0.1 0.2
v -3.6 0.1 0.0999999
v -3.5 0.1 0.0999999
v -3.3 0.1 0.0999999
v -3.2 0.1 0.0999999
v -3.6 0.1 -2.38419e-07
v -3.5 0.1 -2.38419e-07
v -3.3 0.1 -2.38419e-07
v -3.2 0.1 -2.38419e-07
v -3.5 0.1 -0.1
v -3.3 0.1 -0.1
v -3.7 0.1 -0.2
v -3.6 0.1 -0.2
v -3.2 0.1 -0.2
v -3.1 0.1 -0.2
v -3.6 0.1 -0.3
v -3.2 0.1 -0.3
v -3.5 0.2 0.2
v -3.3 0.2 0.2
v -3.6 0.2 0.0999999
v -3.5 0.2 0.0999999
v -3.3 0.2 0.0999999
v -3.2 0.2 0.0999999
v -3.6 0.2 -2.38419e-07
v -3.5 0.2 -2.38419e-07
v -3.3 0.2 -2.38419e-07
v -3.2 0.2 -2.38419e-07
v -3.5 0.2 -0.1
v -3.3 0.2 -0.1
v -3.5 5.3 0.0999999
v -3.3 5.3 0.0999999
v -3.5 5.3 -2.38419e-07
v -3.3 5.3 -2.38419e-07
v -3.5 5.4 0.2
v -3.3 5.4 0.2
v -3.5 5.4 0.0999999
v -3.3 5.4 0.0999999
v -3.6 5.5 2
v -3.2 5.5 2
v -3.7 5.5 1.9
v -3.6 5.5 1.9
v -3.2 5.5 1.9
v -3.1 5.5 1.9
v -3.6 5.5 1.8
v -3.2 5.5 1.8
v -3.6 5.5 1.3
v -3.2 5.5 1.3
v -3.7 5.5 1.2
v -3.6 5.5 1.2
v -3.2 5.5 1.2
v -3.1 5.5 1.2
v -3.6 5.5 1.1
v -3.5 5.5 1.1
v -3.3 5.5 1.1
v -3.2 5.5 1.1
v -3.5 5.5 0.2
v -3.3 5.5 0.2
v -3.6 5.6 1.8
v -3.2 5.6 1.8
v -3.5 5.6 1.7
v -3.3 5.6 1.7
v -3.5 5.6 1.4
v -3.3 5.6 1.4
v -3.6 5.6 1.3
v -3.2 5.6 1.3
v -3.5 5.7 1.7
v -3.3 5.7 1.7
v -3.5 5.7 1.4
v -3.3 5.7 1.4

# faces
f 3/4/1 2/4/1 1/4/1
f 4/4/1 2/4/1 3/4/1
f 7/3/1 6/3/1 5/3/1
f 8/3/1 6/3/1 7/3/1
f 13/4/1 10/4/1 9/4/1
f 14/4/1 10/4/1 13/4/1
f 17/4/1 12/4/1 11/4/1
f 18/4/1 12/4/1 17/4/1
f 19/4/1 16/4/1 15/4/1
f 20/4/1 16/4/1 19/4/1
f 24/1/1 22/1/1 21/1/1
f 25/1/1 22/1/1 24/1/1
f 29/1/1 24/1/1 23/1/1
f 29/1/1 25/1/1 24/1/1
f 29/1/1 26/1/1 25/1/1
f 30/1/1 26/1/1 29/1/1
f 33/3/1 28/3/1 27/3/1
f 34/3/1 28/3/1 33/3/1
f 37/3/1 32/3/1 31/3/1
f 38/3/1 32/3/1 37/3/1
f 39/3/1 36/3/1 35/3/1
f 40/3/1 36/3/1 39/3/1
f 45/4/1 42/4/1 41/4/1
f 46/4/1 42/4/1 45/4/1
f 47/4/1 44/4/1 43/4/1
f 48/4/1 44/4/1 47/4/1
f 54/2/1 47/2/1 46/2/1
f 56/1/1 50/1/1 49/1/1
f 57/1/1 50/1/1 56/1/1
f 58/1/1 52/1/1 51/1/1
f 59/1/1 52/1/1 58/1/1
f 62/2/1 54/2/1 53/2/1
f 63/2/1 47/2/1 54/2/1
f 63/2/1 54/2/1 62/2/1
f 64/2/1 47/2/1 63/2/1
f 65/1/1 56/1/1 55/1/1
f 66/1/1 56/1/1 65/1/1
f 67/1/1 60/1/1 59/1/1
f 68/1/1 60/1/1 67/1/1
f 70/2/1 62/2/1 61/2/1
f 70/2/1 63/2/1 62/2/1
f 71/2/1 63/2/1 70/2/1
f 72/2/1 63/2/1 71/2/1
f 73/2/1 71/2/1 70/2/1
f 73/2/1 70/2/1 69/2/1
f 74/2/1 71/2/1 73/2/1
f 77/3/1 76/3/1 75/3/1
f 78/3/1 76/3/1 77/3/1
f 79/4/2 80/4/2 83/4/2
f 83/4/2 80/4/2 84/4/2
f 81/4/2 82/4/2 85/4/2
f 85/4/2 82/4/2 86/4/2
f 84/2/2 85/2/2 92/2/2
f 87/1/2 88/1/2 94/1/2
f 94/1/2 88/1/2 95/1/2
f 89/1/2 90/1/2 96/1/2
f 96/1/2 90/1/2 97/1/2
f 91/2/2 92/2/2 100/2/2
f 92/2/2 85/2/2 101/2/2
f 100/2/2 92/2/2 101/2/2
f 101/2/2 85/2/2 102/2/2
f 93/1/2 94/1/2 103/1/2
f 103/1/2 94/1/2 104/1/2
f 97/1/2 98/1/2 105/1/2
f 105/1/2 98/1/2 106/1/2
f 99/2/2 100/2/2 108/2/2
f 100/2/2 101/2/2 108/2/2
f 108/2/2 101/2/2 109/2/2
f 109/2/2 101/2/2 110/2/2
f 108/2/2 109/2/2 111/2/2
f 107/2/2 108/2/2 111/2/2
f 111/2/2 109/2/2 112/2/2
f 113/3/2 114/3/2 115/3/2
f 115/3/2 114/3/2 116/3/2
f 117/4/2 118/4/2 121/4/2
f 121/4/2 118/4/2 122/4/2
f 119/4/2 120/4/2 125/4/2
f 125/4/2 120/4/2 126/4/2
f 123/4/2 124/4/2 127/4/2
f 127/4/2 124/4/2 128/4/2
f 129/1/2 130/1/2 132/1/2
f 132/1/2 130/1/2 133/1/2
f 131/1/2 132/1/2 137/1/2
f 132/1/2 133/1/2 137/1/2
f 133/1/2 134/1/2 137/1/2
f 137/1/2 134/1/2 138/1/2
f 135/3/2 136/3/2 141/3/2
f 141/3/2 136/3/2 142/3/2
f 139/3/2 140/3/2 145/3/2
f 145/3/2 140/3/2 146/3/2
f 143/3/2 144/3/2 147/3/2
f 147/3/2 144/3/2 148/3/2
f 149/4/2 150/4/2 151/4/2
f 151/4/2 150/4/2 152/4/2
f 153/3/2 154/3/2 155/3/2
f 155/3/2 154/3/2 156/3/2
f 159/3/3 158/3/3 157/3/3
f 160/3/3 158/3/3 159/3/3
f 163/3/3 162/3/3 161/3/3
f 164/3/3 162/3/3 163/3/3
f 167/1/3 166/1/3 165/1/3
f 168/1/3 166/1/3 167/1/3
f 171/3/3 170/3/3 169/3/3
f 172/3/3 170/3/3 171/3/3
f 178/1/3 174/1/3 173/1/3
f 179/1/3 174/1/3 178/1/3
f 180/1/3 178/1/3 177/1/3
f 181/1/3 178/1/3 180/1/3
f 183/1/3 182/1/3 181/1/3
f 184/1/3 182/1/3 183/1/3
f 185/3/3 176/3/3 175/3/3
f 186/3/3 176/3/3 185/3/3
f 189/1/3 188/1/3 187/1/3
f 190/1/3 188/1/3 189/1/3
f 195/3/3 192/3/3 191/3/3
f 196/3/3 192/3/3 195/3/3
f 197/1/3 194/1/3 193/1/3
f 198/1/3 194/1/3 197/1/3
f 201/4/3 200/4/3 199/4/3
f 202/4/3 200/4/3 201/4/3
f 205/4/3 204/4/3 203/4/3
f 206/4/3 204/4/3 205/4/3
f 209/2/3 208/2/3 207/2/3
f 210/2/3 208/2/3 209/2/3
f 213/4/3 212/4/3 211/4/3
f 214/4/3 212/4/3 213/4/3
f 219/4/3 216/4/3 215/4/3
f 220/4/3 216/4/3 219/4/3
f 221/2/3 218/2/3 217/2/3
f 222/2/3 218/2/3 221/2/3
f 225/4/3 224/4/3 223/4/3
f 226/4/3 224/4/3 225/4/3
f 229/2/3 227/2/3 226/2/3
f 230/2/3 227/2/3 229/2/3
f 231/4/3 229/4/3 228/4/3
f 232/4/3 229/4/3 231/4/3
f 233/1/4 234/1/4 235/1/4
f 235/1/4 234/1/4 236/1/4
f 237/3/4 238/3/4 241/3/4
f 241/3/4 238/3/4 242/3/4
f 239/1/4 240/1/4 243/1/4
f 243/1/4 240/1/4 244/1/4
f 245/1/4 246/1/4 250/1/4
f 250/1/4 246/1/4 251/1/4
f 249/1/4 250/1/4 252/1/4
f 252/1/4 250/1/4 253/1/4
f 253/1/4 254/1/4 255/1/4
f 255/1/4 254/1/4 256/1/4
f 247/3/4 248/3/4 257/3/4
f 257/3/4 248/3/4 258/3/4
f 259/3/4 260/3/4 261/3/4
f 261/3/4 260/3/4 262/3/4
f 263/1/4 264/1/4 265/1/4
f 265/1/4 264/1/4 266/1/4
f 267/3/4 268/3/4 269/3/4
f 269/3/4 268/3/4 270/3/4
f 271/3/4 272/3/4 273/3/4
f 273/3/4 272/3/4 274/3/4
f 275/3/4 276/3/4 277/3/4
f 277/3/4 276/3/4 278/3/4
f 279/2/4 280/2/4 281/2/4
f 281/2/4 280/2/4 282/2/4
f 283/2/4 284/2/4 285/2/4
f 285/2/4 284/2/4 286/2/4
f 287/4/4 288/4/4 289/4/4
f 289/4/4 288/4/4 290/4/4
f 290/2/4 291/2/4 293/2/4
f 293/2/4 291/2/4 294/2/4
f 292/4/4 293/4/4 295/4/4
f 295/4/4 293/4/4 296/4/4
f 297/4/4 298/4/4 299/4/4
f 299/4/4 298/4/4 300/4/4
f 301/4/4 302/4/4 303/4/4
f 303/4/4 302/4/4 304/4/4
f 305/4/4 306/4/4 307/4/4
f 307/4/4 306/4/4 308/4/4
f 309/4/4 310/4/4 311/4/4
f 311/4/4 310/4/4 312/4/4
f 316/4/5 314/4/5 313/4/5
f 317/4/5 314/4/5 316/4/5
f 319/4/5 316/4/5 315/4/5
f 319/4/5 318/4/5 317/4/5
f 319/4/5 317/4/5 316/4/5
f 320/4/5 318/4/5 319/4/5
f 321/4/5 318/4/5 320/4/5
f 322/4/5 318/4/5 321/4/5
f 323/4/5 321/4/5 320/4/5
f 324/4/5 321/4/5 323/4/5
f 328/1/5 326/1/5 325/1/5
f 329/1/5 326/1/5 328/1/5
f 331/1/5 328/1/5 327/1/5
f 331/1/5 330/1/5 329/1/5
f 331/1/5 329/1/5 328/1/5
f 332/1/5 330/1/5 331/1/5
f 333/1/5 330/1/5 332/1/5
f 334/1/5 330/1/5 333/1/5
f 335/1/5 333/1/5 332/1/5
f 336/1/5 333/1/5 335/1/5
f 339/2/5 338/2/5 337/2/5
f 340/2/5 338/2/5 339/2/5
f 344/1/5 342/1/5 341/1/5
f 345/1/5 342/1/5 344/1/5
f 347/1/5 344/1/5 343/1/5
f 348/1/5 344/1/5 347/1/5
f 349/1/5 346/1/5 345/1/5
f 350/1/5 346/1/5 349/1/5
f 355/1/5 352/1/5 351/1/5
f 356/1/5 352/1/5 355/1/5
f 357/1/5 354/1/5 353/1/5
f 358/1/5 354/1/5 357/1/5
f 359/1/5 357/1/5 356/1/5
f 360/1/5 357/1/5 359/1/5
f 363/2/5 362/2/5 361/2/5
f 364/2/5 362/2/5 363/2/5
f 368/3/5 366/3/5 365/3/5
f 369/3/5 366/3/5 368/3/5
f 370/3/5 366/3/5 369/3/5
f 371/3/5 366/3/5 370/3/5
f 373/3/5 368/3/5 367/3/5
f 373/3/5 369/3/5 368/3/5
f 374/3/5 369/3/5 373/3/5
f 375/3/5 372/3/5 371/3/5
f 375/3/5 371/3/5 370/3/5
f 376/3/5 372/3/5 375/3/5
f 377/3/5 373/3/5 367/3/5
f 380/3/5 372/3/5 376/3/5
f 381/3/5 378/3/5 377/3/5
f 381/3/5 377/3/5 367/3/5
f 382/3/5 378/3/5 381/3/5
f 383/3/5 378/3/5 382/3/5
f 384/3/5 380/3/5 379/3/5
f 385/3/5 372/3/5 380/3/5
f 385/3/5 380/3/5 384/3/5
f 386/3/5 372/3/5 385/3/5
f 387/3/5 383/3/5 382/3/5
f 387/3/5 384/3/5 383/3/5
f 387/3/5 385/3/5 384/3/5
f 388/3/5 385/3/5 387/3/5
f 389/3/5 385/3/5 388/3/5
f 390/3/5 385/3/5 389/3/5
f 391/2/5 389/2/5 388/2/5
f 392/2/5 389/2/5 391/2/5
f 393/4/6 394/4/6 396/4/6
f 396/4/6 394/4/6 397/4/6
f 395/4/6 396/4/6 399/4/6
f 397/4/6 398/4/6 399/4/6
f 396/4/6 397/4/6 399/4/6
f 399/4/6 398/4/6 400/4/6
f 395/4/6 399/4/6 401/4/6
f 401/4/6 399/4/6 402/4/6
f 400/4/6 398/4/6 403/4/6
f 403/4/6 398/4/6 404/4/6
f 395/4/6 401/4/6 405/4/6
f 404/4/6 398/4/6 408/4/6
f 405/4/6 406/4/6 409/4/6
f 407/4/6 408/4/6 410/4/6
f 405/4/6 409/4/6 411/4/6
f 409/4/6 410/4/6 411/4/6
f 395/4/6 405/4/6 411/4/6
f 411/4/6 410/4/6 412/4/6
f 410/4/6 408/4/6 413/4/6
f 412/4/6 410/4/6 413/4/6
f 408/4/6 398/4/6 413/4/6
f 413/4/6 398/4/6 414/4/6
f 412/4/6 413/4/6 415/4/6
f 415/4/6 413/4/6 416/4/6
f 417/4/6 418/4/6 420/4/6
f 420/4/6 418/4/6 421/4/6
f 419/4/6 420/4/6 423/4/6
f 423/4/6 420/4/6 424/4/6
f 421/4/6 422/4/6 425/4/6
f 425/4/6 422/4/6 426/4/6
f 424/4/6 425/4/6 427/4/6
f 427/4/6 425/4/6 428/4/6
f 429/2/6 430/2/6 431/2/6
f 431/2/6 430/2/6 432/2/6
f 433/2/6 434/2/6 435/2/6
f 435/2/6 434/2/6 436/2/6
f 437/3/6 438/3/6 440/3/6
f 440/3/6 438/3/6 441/3/6
f 439/3/6 440/3/6 443/3/6
f 441/3/6 442/3/6 443/3/6
f 440/3/6 441/3/6 443/3/6
f 443/3/6 442/3/6 444/3/6
f 439/3/6 443/3/6 445/3/6
f 444/3/6 442/3/6 446/3/6
f 439/3/6 445/3/6 447/3/6
f 445/3/6 446/3/6 447/3/6
f 447/3/6 446/3/6 448/3/6
f 446/3/6 442/3/6 449/3/6
f 448/3/6 446/3/6 449/3/6
f 449/3/6 442/3/6 450/3/6
f 448/3/6 449/3/6 451/3/6
f 451/3/6 449/3/6 452/3/6
f 452/3/6 449/3/6 453/3/6
f 453/3/6 449/3/6 454/3/6
f 452/2/6 453/2/6 455/2/6
f 455/2/6 453/2/6 456/2/6
f 457/3/6 458/3/6 459/3/6
f 459/3/6 458/3/6 460/3/6
f 457/3/6 459/3/6 461/3/6
f 460/3/6 458/3/6 462/3/6
f 457/3/6 461/3/6 463/3/6
f 461/3/6 462/3/6 463/3/6
f 462/3/6 458/3/6 464/3/6
f 463/3/6 462/3/6 464/3/6
f 465/3/6 466/3/6 467/3/6
f 467/3/6 466/3/6 468/3/6
