# MagicaVoxel @ Ephtracy

# group
o Woman1

# material
mtllib Trainvasion Moterman-21-Woman1.mtl
usemtl palette

# normals
vn -1 0 0
vn 1 0 0
vn 0 0 1
vn 0 0 -1
vn 0 -1 0
vn 0 1 0

# texcoords
vt 0.0332031 0.5
vt 0.0371094 0.5
vt 0.951172 0.5
vt 0.978516 0.5
vt 0.990234 0.5
vt 0.994141 0.5

# verts
v 4.8 1.2 -0.2
v 4.8 1.2 -0.4
v 4.8 1.4 -0.2
v 4.8 1.4 -0.4
v 5.4 1.5 -0.1
v 5.4 1.5 -0.7
v 5.4 1.7 -0.2
v 5.4 1.7 -0.3
v 5.4 1.8 0
v 5.4 1.8 -0.1
v 5.4 1.9 -0.2
v 5.4 1.9 -0.3
v 5.4 2 0
v 5.4 2 -0.7
v 5.5 0 0
v 5.5 0 -0.4
v 5.5 0.1 0
v 5.5 0.1 -0.2
v 5.5 0.1 -0.4
v 5.5 0.7 -0.1
v 5.5 0.7 -0.2
v 5.5 0.7 -0.4
v 5.5 0.7 -0.5
v 5.5 1.2 -0.2
v 5.5 1.2 -0.4
v 5.5 1.4 -0.1
v 5.5 1.4 -0.2
v 5.5 1.4 -0.4
v 5.5 1.4 -0.5
v 5.5 1.5 0
v 5.5 1.5 -0.1
v 5.5 1.8 0
v 5.5 1.8 -0.1
v 5.5 1.9 0.1
v 5.5 1.9 0
v 5.5 2 0.2
v 5.5 2 0.1
v 5.5 2 0
v 5.5 2 -0.6
v 5.5 2.1 0.2
v 5.5 2.1 0
v 5.5 2.2 0
v 5.5 2.2 -0.6
v 5.6 1.4 -0.1
v 5.6 1.4 -0.5
v 5.6 1.5 -0.1
v 5.6 1.5 -0.5
v 5.9 0 0
v 5.9 0 -0.4
v 5.9 0.1 0
v 5.9 0.1 -0.2
v 5.9 0.1 -0.4
v 5.9 0.7 -0.2
v 5.9 0.7 -0.4
v 5.7 0 0
v 5.7 0 -0.4
v 5.7 0.1 0
v 5.7 0.1 -0.2
v 5.7 0.1 -0.4
v 5.7 0.7 -0.2
v 5.7 0.7 -0.4
v 6 1.4 -0.1
v 6 1.4 -0.5
v 6 1.5 -0.1
v 6 1.5 -0.5
v 6.1 0 0
v 6.1 0 -0.4
v 6.1 0.1 0
v 6.1 0.1 -0.2
v 6.1 0.1 -0.4
v 6.1 0.7 -0.1
v 6.1 0.7 -0.2
v 6.1 0.7 -0.4
v 6.1 0.7 -0.5
v 6.1 1.2 -0.2
v 6.1 1.2 -0.4
v 6.1 1.4 -0.1
v 6.1 1.4 -0.2
v 6.1 1.4 -0.4
v 6.1 1.4 -0.5
v 6.1 1.5 0
v 6.1 1.5 -0.1
v 6.1 1.8 0
v 6.1 1.8 -0.1
v 6.1 1.9 0.1
v 6.1 1.9 0
v 6.1 2 0.2
v 6.1 2 0.1
v 6.1 2 0
v 6.1 2 -0.6
v 6.1 2.1 0.2
v 6.1 2.1 0
v 6.1 2.2 0
v 6.1 2.2 -0.6
v 6.2 1.5 -0.1
v 6.2 1.5 -0.7
v 6.2 1.7 -0.2
v 6.2 1.7 -0.3
v 6.2 1.8 0
v 6.2 1.8 -0.1
v 6.2 1.9 -0.2
v 6.2 1.9 -0.3
v 6.2 2 0
v 6.2 2 -0.7
v 6.8 1.2 -0.2
v 6.8 1.2 -0.4
v 6.8 1.4 -0.2
v 6.8 1.4 -0.4
v 5.5 2 0.2
v 5.5 2.1 0.2
v 6.1 2 0.2
v 6.1 2.1 0.2
v 5.5 1.9 0.1
v 5.5 2 0.1
v 6.1 1.9 0.1
v 6.1 2 0.1
v 5.4 1.8 0
v 5.4 2 0
v 5.5 0 0
v 5.5 0.1 0
v 5.5 1.5 0
v 5.5 1.8 0
v 5.5 1.9 0
v 5.5 2 0
v 5.5 2.1 0
v 5.5 2.2 0
v 5.6 1.7 0
v 5.6 1.9 0
v 5.7 0 0
v 5.7 0.1 0
v 5.7 1.5 0
v 5.7 1.6 0
v 5.7 1.7 0
v 5.7 1.9 0
v 5.9 0 0
v 5.9 0.1 0
v 5.9 1.5 0
v 5.9 1.6 0
v 5.9 1.7 0
v 5.9 1.9 0
v 6 1.7 0
v 6 1.9 0
v 6.1 0 0
v 6.1 0.1 0
v 6.1 1.5 0
v 6.1 1.8 0
v 6.1 1.9 0
v 6.1 2 0
v 6.1 2.1 0
v 6.1 2.2 0
v 6.2 1.8 0
v 6.2 2 0
v 5.4 1.5 -0.1
v 5.4 1.8 -0.1
v 5.5 0.7 -0.1
v 5.5 1.4 -0.1
v 5.5 1.5 -0.1
v 5.5 1.8 -0.1
v 5.6 1.4 -0.1
v 5.6 1.5 -0.1
v 5.7 0.9 -0.1
v 5.7 1.4 -0.1
v 5.7 1.5 -0.1
v 5.9 0.9 -0.1
v 5.9 1.4 -0.1
v 5.9 1.5 -0.1
v 6 1.4 -0.1
v 6 1.5 -0.1
v 6.1 0.7 -0.1
v 6.1 1.4 -0.1
v 6.1 1.5 -0.1
v 6.1 1.8 -0.1
v 6.2 1.5 -0.1
v 6.2 1.8 -0.1
v 4.8 1.2 -0.2
v 4.8 1.4 -0.2
v 5 1.2 -0.2
v 5 1.4 -0.2
v 5.5 0.1 -0.2
v 5.5 0.7 -0.2
v 5.5 1.2 -0.2
v 5.5 1.4 -0.2
v 5.7 0.1 -0.2
v 5.7 0.7 -0.2
v 5.9 0.1 -0.2
v 5.9 0.7 -0.2
v 6.1 0.1 -0.2
v 6.1 0.7 -0.2
v 6.1 1.2 -0.2
v 6.1 1.4 -0.2
v 6.6 1.2 -0.2
v 6.6 1.4 -0.2
v 6.8 1.2 -0.2
v 6.8 1.4 -0.2
v 4.8 1.2 -0.4
v 4.8 1.4 -0.4
v 5 1.2 -0.4
v 5 1.4 -0.4
v 5.5 0 -0.4
v 5.5 0.1 -0.4
v 5.5 0.7 -0.4
v 5.5 1.2 -0.4
v 5.5 1.4 -0.4
v 5.7 0 -0.4
v 5.7 0.1 -0.4
v 5.7 0.7 -0.4
v 5.9 0 -0.4
v 5.9 0.1 -0.4
v 5.9 0.7 -0.4
v 6.1 0 -0.4
v 6.1 0.1 -0.4
v 6.1 0.7 -0.4
v 6.1 1.2 -0.4
v 6.1 1.4 -0.4
v 6.6 1.2 -0.4
v 6.6 1.4 -0.4
v 6.8 1.2 -0.4
v 6.8 1.4 -0.4
v 5.5 0.7 -0.5
v 5.5 1.4 -0.5
v 5.6 1.4 -0.5
v 5.6 1.5 -0.5
v 6 1.4 -0.5
v 6 1.5 -0.5
v 6.1 0.7 -0.5
v 6.1 1.4 -0.5
v 5.5 2 -0.6
v 5.5 2.2 -0.6
v 6.1 2 -0.6
v 6.1 2.2 -0.6
v 5.4 1.5 -0.7
v 5.4 2 -0.7
v 6.2 1.5 -0.7
v 6.2 2 -0.7
v 5.5 0 0
v 5.7 0 0
v 5.9 0 0
v 6.1 0 0
v 5.5 0 -0.4
v 5.7 0 -0.4
v 5.9 0 -0.4
v 6.1 0 -0.4
v 5.5 0.7 -0.1
v 6.1 0.7 -0.1
v 5.5 0.7 -0.2
v 5.7 0.7 -0.2
v 5.9 0.7 -0.2
v 6.1 0.7 -0.2
v 5.5 0.7 -0.4
v 5.7 0.7 -0.4
v 5.9 0.7 -0.4
v 6.1 0.7 -0.4
v 5.5 0.7 -0.5
v 6.1 0.7 -0.5
v 4.8 1.2 -0.2
v 5 1.2 -0.2
v 5.5 1.2 -0.2
v 6.1 1.2 -0.2
v 6.6 1.2 -0.2
v 6.8 1.2 -0.2
v 4.8 1.2 -0.4
v 5 1.2 -0.4
v 5.5 1.2 -0.4
v 6.1 1.2 -0.4
v 6.6 1.2 -0.4
v 6.8 1.2 -0.4
v 5.5 1.5 0
v 5.7 1.5 0
v 5.9 1.5 0
v 6.1 1.5 0
v 5.4 1.5 -0.1
v 5.5 1.5 -0.1
v 5.6 1.5 -0.1
v 5.7 1.5 -0.1
v 5.9 1.5 -0.1
v 6 1.5 -0.1
v 6.1 1.5 -0.1
v 6.2 1.5 -0.1
v 5.6 1.5 -0.5
v 6 1.5 -0.5
v 5.5 1.5 -0.6
v 6.1 1.5 -0.6
v 5.4 1.5 -0.7
v 6.2 1.5 -0.7
v 5.4 1.8 0
v 5.5 1.8 0
v 6.1 1.8 0
v 6.2 1.8 0
v 5.4 1.8 -0.1
v 5.5 1.8 -0.1
v 6.1 1.8 -0.1
v 6.2 1.8 -0.1
v 5.5 1.9 0.1
v 6.1 1.9 0.1
v 5.5 1.9 0
v 5.6 1.9 0
v 5.7 1.9 0
v 5.9 1.9 0
v 6 1.9 0
v 6.1 1.9 0
v 5.5 2 0.2
v 6.1 2 0.2
v 5.5 2 0.1
v 6.1 2 0.1
v 5.5 0.1 0
v 5.7 0.1 0
v 5.9 0.1 0
v 6.1 0.1 0
v 5.5 0.1 -0.2
v 5.7 0.1 -0.2
v 5.9 0.1 -0.2
v 6.1 0.1 -0.2
v 5.5 1.4 -0.1
v 5.6 1.4 -0.1
v 6 1.4 -0.1
v 6.1 1.4 -0.1
v 4.8 1.4 -0.2
v 5 1.4 -0.2
v 5.5 1.4 -0.2
v 6.1 1.4 -0.2
v 6.6 1.4 -0.2
v 6.8 1.4 -0.2
v 4.8 1.4 -0.4
v 5 1.4 -0.4
v 5.5 1.4 -0.4
v 6.1 1.4 -0.4
v 6.6 1.4 -0.4
v 6.8 1.4 -0.4
v 5.5 1.4 -0.5
v 5.6 1.4 -0.5
v 6 1.4 -0.5
v 6.1 1.4 -0.5
v 5.4 2 0
v 5.5 2 0
v 6.1 2 0
v 6.2 2 0
v 5.5 2 -0.6
v 6.1 2 -0.6
v 5.4 2 -0.7
v 6.2 2 -0.7
v 5.5 2.1 0.2
v 6.1 2.1 0.2
v 5.5 2.1 0
v 6.1 2.1 0
v 5.5 2.2 0
v 6.1 2.2 0
v 5.5 2.2 -0.6
v 6.1 2.2 -0.6

# faces
f 3/1/1 2/1/1 1/1/1
f 4/1/1 2/1/1 3/1/1
f 7/2/1 6/2/1 5/2/1
f 8/2/1 6/2/1 7/2/1
f 10/2/1 7/2/1 5/2/1
f 11/1/1 8/1/1 7/1/1
f 11/2/1 10/2/1 9/2/1
f 11/2/1 7/2/1 10/2/1
f 12/2/1 6/2/1 8/2/1
f 12/1/1 8/1/1 11/1/1
f 13/2/1 11/2/1 9/2/1
f 13/2/1 12/2/1 11/2/1
f 14/2/1 6/2/1 12/2/1
f 14/2/1 12/2/1 13/2/1
f 17/6/1 16/6/1 15/6/1
f 18/6/1 16/6/1 17/6/1
f 19/6/1 16/6/1 18/6/1
f 21/3/1 19/3/1 18/3/1
f 22/3/1 19/3/1 21/3/1
f 24/4/1 22/4/1 21/4/1
f 24/4/1 23/4/1 22/4/1
f 24/4/1 21/4/1 20/4/1
f 25/4/1 23/4/1 24/4/1
f 26/4/1 24/4/1 20/4/1
f 27/4/1 24/4/1 26/4/1
f 28/4/1 23/4/1 25/4/1
f 29/4/1 23/4/1 28/4/1
f 32/1/1 31/1/1 30/1/1
f 33/1/1 31/1/1 32/1/1
f 37/2/1 35/2/1 34/2/1
f 38/2/1 35/2/1 37/2/1
f 40/3/1 38/3/1 37/3/1
f 40/3/1 39/3/1 38/3/1
f 40/3/1 37/3/1 36/3/1
f 41/3/1 39/3/1 40/3/1
f 42/3/1 39/3/1 41/3/1
f 43/3/1 39/3/1 42/3/1
f 46/4/1 45/4/1 44/4/1
f 47/4/1 45/4/1 46/4/1
f 50/6/1 49/6/1 48/6/1
f 51/6/1 49/6/1 50/6/1
f 52/6/1 49/6/1 51/6/1
f 53/3/1 52/3/1 51/3/1
f 54/3/1 52/3/1 53/3/1
f 55/6/2 56/6/2 57/6/2
f 57/6/2 56/6/2 58/6/2
f 58/6/2 56/6/2 59/6/2
f 58/3/2 59/3/2 60/3/2
f 60/3/2 59/3/2 61/3/2
f 62/4/2 63/4/2 64/4/2
f 64/4/2 63/4/2 65/4/2
f 66/6/2 67/6/2 68/6/2
f 68/6/2 67/6/2 69/6/2
f 69/6/2 67/6/2 70/6/2
f 69/3/2 70/3/2 72/3/2
f 72/3/2 70/3/2 73/3/2
f 72/4/2 73/4/2 75/4/2
f 73/4/2 74/4/2 75/4/2
f 71/4/2 72/4/2 75/4/2
f 75/4/2 74/4/2 76/4/2
f 71/4/2 75/4/2 77/4/2
f 77/4/2 75/4/2 78/4/2
f 76/4/2 74/4/2 79/4/2
f 79/4/2 74/4/2 80/4/2
f 81/1/2 82/1/2 83/1/2
f 83/1/2 82/1/2 84/1/2
f 85/2/2 86/2/2 88/2/2
f 88/2/2 86/2/2 89/2/2
f 88/3/2 89/3/2 91/3/2
f 89/3/2 90/3/2 91/3/2
f 87/3/2 88/3/2 91/3/2
f 91/3/2 90/3/2 92/3/2
f 92/3/2 90/3/2 93/3/2
f 93/3/2 90/3/2 94/3/2
f 95/2/2 96/2/2 97/2/2
f 97/2/2 96/2/2 98/2/2
f 95/2/2 97/2/2 100/2/2
f 97/1/2 98/1/2 101/1/2
f 99/2/2 100/2/2 101/2/2
f 100/2/2 97/2/2 101/2/2
f 98/2/2 96/2/2 102/2/2
f 101/1/2 98/1/2 102/1/2
f 99/2/2 101/2/2 103/2/2
f 101/2/2 102/2/2 103/2/2
f 102/2/2 96/2/2 104/2/2
f 103/2/2 102/2/2 104/2/2
f 105/1/2 106/1/2 107/1/2
f 107/1/2 106/1/2 108/1/2
f 111/3/3 110/3/3 109/3/3
f 112/3/3 110/3/3 111/3/3
f 115/2/3 114/2/3 113/2/3
f 116/2/3 114/2/3 115/2/3
f 122/2/3 118/2/3 117/2/3
f 123/2/3 118/2/3 122/2/3
f 124/2/3 118/2/3 123/2/3
f 127/1/3 122/1/3 121/1/3
f 127/1/3 123/1/3 122/1/3
f 128/1/3 123/1/3 127/1/3
f 129/6/3 120/6/3 119/6/3
f 130/6/3 120/6/3 129/6/3
f 131/1/3 127/1/3 121/1/3
f 132/1/3 127/1/3 131/1/3
f 133/5/3 128/5/3 127/5/3
f 133/1/3 127/1/3 132/1/3
f 134/5/3 128/5/3 133/5/3
f 137/5/3 132/5/3 131/5/3
f 138/1/3 133/1/3 132/1/3
f 138/5/3 132/5/3 137/5/3
f 138/1/3 134/1/3 133/1/3
f 139/1/3 134/1/3 138/1/3
f 140/1/3 134/1/3 139/1/3
f 141/1/3 138/1/3 137/1/3
f 141/1/3 139/1/3 138/1/3
f 141/5/3 140/5/3 139/5/3
f 142/5/3 140/5/3 141/5/3
f 143/6/3 136/6/3 135/6/3
f 144/6/3 136/6/3 143/6/3
f 145/1/3 141/1/3 137/1/3
f 145/1/3 142/1/3 141/1/3
f 146/1/3 142/1/3 145/1/3
f 147/1/3 142/1/3 146/1/3
f 149/3/3 126/3/3 125/3/3
f 150/3/3 126/3/3 149/3/3
f 151/2/3 147/2/3 146/2/3
f 151/2/3 148/2/3 147/2/3
f 152/2/3 148/2/3 151/2/3
f 157/2/3 154/2/3 153/2/3
f 158/2/3 154/2/3 157/2/3
f 159/4/3 156/4/3 155/4/3
f 161/4/3 159/4/3 155/4/3
f 161/4/3 160/4/3 159/4/3
f 162/4/3 160/4/3 161/4/3
f 163/4/3 160/4/3 162/4/3
f 164/4/3 161/4/3 155/4/3
f 164/5/3 162/5/3 161/5/3
f 165/4/3 163/4/3 162/4/3
f 165/5/3 162/5/3 164/5/3
f 166/4/3 163/4/3 165/4/3
f 167/4/3 165/4/3 164/4/3
f 167/4/3 166/4/3 165/4/3
f 168/4/3 166/4/3 167/4/3
f 169/4/3 164/4/3 155/4/3
f 169/4/3 167/4/3 164/4/3
f 170/4/3 167/4/3 169/4/3
f 173/2/3 172/2/3 171/2/3
f 174/2/3 172/2/3 173/2/3
f 177/1/3 176/1/3 175/1/3
f 178/1/3 176/1/3 177/1/3
f 181/4/3 178/4/3 177/4/3
f 182/4/3 178/4/3 181/4/3
f 183/3/3 180/3/3 179/3/3
f 184/3/3 180/3/3 183/3/3
f 187/3/3 186/3/3 185/3/3
f 188/3/3 186/3/3 187/3/3
f 191/4/3 190/4/3 189/4/3
f 192/4/3 190/4/3 191/4/3
f 193/1/3 192/1/3 191/1/3
f 194/1/3 192/1/3 193/1/3
f 195/1/4 196/1/4 197/1/4
f 197/1/4 196/1/4 198/1/4
f 197/4/4 198/4/4 202/4/4
f 202/4/4 198/4/4 203/4/4
f 199/6/4 200/6/4 204/6/4
f 200/3/4 201/3/4 205/3/4
f 204/6/4 200/6/4 205/6/4
f 205/3/4 201/3/4 206/3/4
f 207/6/4 208/6/4 210/6/4
f 208/3/4 209/3/4 211/3/4
f 210/6/4 208/6/4 211/6/4
f 211/3/4 209/3/4 212/3/4
f 213/4/4 214/4/4 215/4/4
f 215/4/4 214/4/4 216/4/4
f 215/1/4 216/1/4 217/1/4
f 217/1/4 216/1/4 218/1/4
f 219/4/4 220/4/4 221/4/4
f 219/4/4 221/4/4 223/4/4
f 221/4/4 222/4/4 223/4/4
f 223/4/4 222/4/4 224/4/4
f 219/4/4 223/4/4 225/4/4
f 225/4/4 223/4/4 226/4/4
f 227/3/4 228/3/4 229/3/4
f 229/3/4 228/3/4 230/3/4
f 231/2/4 232/2/4 233/2/4
f 233/2/4 232/2/4 234/2/4
f 239/6/5 236/6/5 235/6/5
f 240/6/5 236/6/5 239/6/5
f 241/6/5 238/6/5 237/6/5
f 242/6/5 238/6/5 241/6/5
f 245/4/5 244/4/5 243/4/5
f 246/4/5 244/4/5 245/4/5
f 247/4/5 244/4/5 246/4/5
f 248/4/5 244/4/5 247/4/5
f 250/4/5 247/4/5 246/4/5
f 251/4/5 247/4/5 250/4/5
f 253/4/5 250/4/5 249/4/5
f 253/4/5 252/4/5 251/4/5
f 253/4/5 251/4/5 250/4/5
f 254/4/5 252/4/5 253/4/5
f 261/1/5 256/1/5 255/1/5
f 262/4/5 257/4/5 256/4/5
f 262/1/5 256/1/5 261/1/5
f 263/4/5 257/4/5 262/4/5
f 264/4/5 259/4/5 258/4/5
f 265/1/5 260/1/5 259/1/5
f 265/4/5 259/4/5 264/4/5
f 266/1/5 260/1/5 265/1/5
f 272/1/5 268/1/5 267/1/5
f 273/1/5 268/1/5 272/1/5
f 274/5/5 269/5/5 268/5/5
f 274/1/5 268/1/5 273/1/5
f 275/1/5 270/1/5 269/1/5
f 275/5/5 269/5/5 274/5/5
f 276/1/5 270/1/5 275/1/5
f 277/1/5 270/1/5 276/1/5
f 279/1/5 273/1/5 272/1/5
f 280/1/5 277/1/5 276/1/5
f 281/1/5 279/1/5 272/1/5
f 281/1/5 280/1/5 279/1/5
f 281/2/5 272/2/5 271/2/5
f 282/2/5 278/2/5 277/2/5
f 282/1/5 280/1/5 281/1/5
f 282/1/5 277/1/5 280/1/5
f 283/2/5 281/2/5 271/2/5
f 283/2/5 282/2/5 281/2/5
f 284/2/5 278/2/5 282/2/5
f 284/2/5 282/2/5 283/2/5
f 289/2/5 286/2/5 285/2/5
f 290/2/5 286/2/5 289/2/5
f 291/2/5 288/2/5 287/2/5
f 292/2/5 288/2/5 291/2/5
f 295/2/5 294/2/5 293/2/5
f 296/2/5 294/2/5 295/2/5
f 297/2/5 294/2/5 296/2/5
f 298/2/5 294/2/5 297/2/5
f 299/2/5 294/2/5 298/2/5
f 300/2/5 294/2/5 299/2/5
f 303/3/5 302/3/5 301/3/5
f 304/3/5 302/3/5 303/3/5
f 305/6/6 306/6/6 309/6/6
f 309/6/6 306/6/6 310/6/6
f 307/6/6 308/6/6 311/6/6
f 311/6/6 308/6/6 312/6/6
f 313/4/6 314/4/6 319/4/6
f 315/4/6 316/4/6 320/4/6
f 317/1/6 318/1/6 323/1/6
f 318/4/6 319/4/6 324/4/6
f 323/1/6 318/1/6 324/1/6
f 319/4/6 314/4/6 325/4/6
f 324/4/6 319/4/6 325/4/6
f 315/4/6 320/4/6 326/4/6
f 320/4/6 321/4/6 326/4/6
f 321/1/6 322/1/6 327/1/6
f 326/4/6 321/4/6 327/4/6
f 327/1/6 322/1/6 328/1/6
f 325/4/6 314/4/6 329/4/6
f 329/4/6 314/4/6 330/4/6
f 315/4/6 326/4/6 331/4/6
f 331/4/6 326/4/6 332/4/6
f 333/2/6 334/2/6 337/2/6
f 335/2/6 336/2/6 338/2/6
f 333/2/6 337/2/6 339/2/6
f 337/2/6 338/2/6 339/2/6
f 338/2/6 336/2/6 340/2/6
f 339/2/6 338/2/6 340/2/6
f 341/3/6 342/3/6 343/3/6
f 343/3/6 342/3/6 344/3/6
f 345/3/6 346/3/6 347/3/6
f 347/3/6 346/3/6 348/3/6
