# MagicaVoxel @ Ephtracy

# group
o Man2

# material
mtllib Trainvasion Moterman-7-Man2.mtl
usemtl palette

# normals
vn -1 0 0
vn 1 0 0
vn 0 0 1
vn 0 0 -1
vn 0 -1 0
vn 0 1 0

# texcoords
vt 0.373047 0.5
vt 0.951172 0.5
vt 0.978516 0.5
vt 0.990234 0.5
vt 0.994141 0.5

# verts
v 2 1.2 -0.2
v 2 1.2 -0.4
v 2 1.4 -0.2
v 2 1.4 -0.4
v 2.6 1.7 -0.2
v 2.6 1.7 -0.3
v 2.6 1.9 -0.2
v 2.6 1.9 -0.3
v 2.7 0 0
v 2.7 0 -0.4
v 2.7 0.1 0
v 2.7 0.1 -0.2
v 2.7 0.1 -0.4
v 2.7 0.7 -0.1
v 2.7 0.7 -0.2
v 2.7 0.7 -0.4
v 2.7 0.7 -0.5
v 2.7 1.2 -0.2
v 2.7 1.2 -0.4
v 2.7 1.4 -0.1
v 2.7 1.4 -0.2
v 2.7 1.4 -0.4
v 2.7 1.4 -0.5
v 2.7 1.5 0
v 2.7 1.5 -0.6
v 2.7 1.7 -0.2
v 2.7 1.7 -0.3
v 2.7 1.9 -0.2
v 2.7 1.9 -0.3
v 2.7 2 0.2
v 2.7 2 0
v 2.7 2 -0.6
v 2.7 2.1 0.2
v 2.7 2.1 0
v 2.7 2.2 0
v 2.7 2.2 -0.6
v 2.8 1.4 -0.1
v 2.8 1.4 -0.5
v 2.8 1.5 -0.1
v 2.8 1.5 -0.5
v 3.1 0 0
v 3.1 0 -0.4
v 3.1 0.1 0
v 3.1 0.1 -0.2
v 3.1 0.1 -0.4
v 3.1 0.7 -0.2
v 3.1 0.7 -0.4
v 2.9 0 0
v 2.9 0 -0.4
v 2.9 0.1 0
v 2.9 0.1 -0.2
v 2.9 0.1 -0.4
v 2.9 0.7 -0.2
v 2.9 0.7 -0.4
v 3.2 1.4 -0.1
v 3.2 1.4 -0.5
v 3.2 1.5 -0.1
v 3.2 1.5 -0.5
v 3.3 0 0
v 3.3 0 -0.4
v 3.3 0.1 0
v 3.3 0.1 -0.2
v 3.3 0.1 -0.4
v 3.3 0.7 -0.1
v 3.3 0.7 -0.2
v 3.3 0.7 -0.4
v 3.3 0.7 -0.5
v 3.3 1.2 -0.2
v 3.3 1.2 -0.4
v 3.3 1.4 -0.1
v 3.3 1.4 -0.2
v 3.3 1.4 -0.4
v 3.3 1.4 -0.5
v 3.3 1.5 0
v 3.3 1.5 -0.6
v 3.3 1.7 -0.2
v 3.3 1.7 -0.3
v 3.3 1.9 -0.2
v 3.3 1.9 -0.3
v 3.3 2 0.2
v 3.3 2 0
v 3.3 2 -0.6
v 3.3 2.1 0.2
v 3.3 2.1 0
v 3.3 2.2 0
v 3.3 2.2 -0.6
v 3.4 1.7 -0.2
v 3.4 1.7 -0.3
v 3.4 1.9 -0.2
v 3.4 1.9 -0.3
v 4 1.2 -0.2
v 4 1.2 -0.4
v 4 1.4 -0.2
v 4 1.4 -0.4
v 2.7 2 0.2
v 2.7 2.1 0.2
v 3.3 2 0.2
v 3.3 2.1 0.2
v 2.7 0 0
v 2.7 0.1 0
v 2.7 1.5 0
v 2.7 2 0
v 2.7 2.1 0
v 2.7 2.2 0
v 2.8 1.7 0
v 2.8 1.9 0
v 2.9 0 0
v 2.9 0.1 0
v 2.9 1.5 0
v 2.9 1.6 0
v 2.9 1.7 0
v 2.9 1.9 0
v 3.1 0 0
v 3.1 0.1 0
v 3.1 1.5 0
v 3.1 1.6 0
v 3.1 1.7 0
v 3.1 1.9 0
v 3.2 1.7 0
v 3.2 1.9 0
v 3.3 0 0
v 3.3 0.1 0
v 3.3 1.5 0
v 3.3 2 0
v 3.3 2.1 0
v 3.3 2.2 0
v 2.7 0.7 -0.1
v 2.7 1.4 -0.1
v 2.8 1.4 -0.1
v 2.8 1.5 -0.1
v 2.9 0.9 -0.1
v 2.9 1.4 -0.1
v 2.9 1.5 -0.1
v 3.1 0.9 -0.1
v 3.1 1.4 -0.1
v 3.1 1.5 -0.1
v 3.2 1.4 -0.1
v 3.2 1.5 -0.1
v 3.3 0.7 -0.1
v 3.3 1.4 -0.1
v 2 1.2 -0.2
v 2 1.4 -0.2
v 2.2 1.2 -0.2
v 2.2 1.4 -0.2
v 2.6 1.7 -0.2
v 2.6 1.9 -0.2
v 2.7 0.1 -0.2
v 2.7 0.7 -0.2
v 2.7 1.2 -0.2
v 2.7 1.4 -0.2
v 2.7 1.7 -0.2
v 2.7 1.9 -0.2
v 2.9 0.1 -0.2
v 2.9 0.7 -0.2
v 3.1 0.1 -0.2
v 3.1 0.7 -0.2
v 3.3 0.1 -0.2
v 3.3 0.7 -0.2
v 3.3 1.2 -0.2
v 3.3 1.4 -0.2
v 3.3 1.7 -0.2
v 3.3 1.9 -0.2
v 3.4 1.7 -0.2
v 3.4 1.9 -0.2
v 3.8 1.2 -0.2
v 3.8 1.4 -0.2
v 4 1.2 -0.2
v 4 1.4 -0.2
v 2.6 1.7 -0.3
v 2.6 1.9 -0.3
v 2.7 1.7 -0.3
v 2.7 1.9 -0.3
v 3.3 1.7 -0.3
v 3.3 1.9 -0.3
v 3.4 1.7 -0.3
v 3.4 1.9 -0.3
v 2 1.2 -0.4
v 2 1.4 -0.4
v 2.2 1.2 -0.4
v 2.2 1.4 -0.4
v 2.7 0 -0.4
v 2.7 0.1 -0.4
v 2.7 0.7 -0.4
v 2.7 1.2 -0.4
v 2.7 1.4 -0.4
v 2.9 0 -0.4
v 2.9 0.1 -0.4
v 2.9 0.7 -0.4
v 3.1 0 -0.4
v 3.1 0.1 -0.4
v 3.1 0.7 -0.4
v 3.3 0 -0.4
v 3.3 0.1 -0.4
v 3.3 0.7 -0.4
v 3.3 1.2 -0.4
v 3.3 1.4 -0.4
v 3.8 1.2 -0.4
v 3.8 1.4 -0.4
v 4 1.2 -0.4
v 4 1.4 -0.4
v 2.7 0.7 -0.5
v 2.7 1.4 -0.5
v 2.8 1.4 -0.5
v 2.8 1.5 -0.5
v 3.2 1.4 -0.5
v 3.2 1.5 -0.5
v 3.3 0.7 -0.5
v 3.3 1.4 -0.5
v 2.7 1.5 -0.6
v 2.7 2 -0.6
v 2.7 2.2 -0.6
v 3.3 1.5 -0.6
v 3.3 2 -0.6
v 3.3 2.2 -0.6
v 2.7 0 0
v 2.9 0 0
v 3.1 0 0
v 3.3 0 0
v 2.7 0 -0.4
v 2.9 0 -0.4
v 3.1 0 -0.4
v 3.3 0 -0.4
v 2.7 0.7 -0.1
v 3.3 0.7 -0.1
v 2.7 0.7 -0.2
v 2.9 0.7 -0.2
v 3.1 0.7 -0.2
v 3.3 0.7 -0.2
v 2.7 0.7 -0.4
v 2.9 0.7 -0.4
v 3.1 0.7 -0.4
v 3.3 0.7 -0.4
v 2.7 0.7 -0.5
v 3.3 0.7 -0.5
v 2 1.2 -0.2
v 2.2 1.2 -0.2
v 2.7 1.2 -0.2
v 3.3 1.2 -0.2
v 3.8 1.2 -0.2
v 4 1.2 -0.2
v 2 1.2 -0.4
v 2.2 1.2 -0.4
v 2.7 1.2 -0.4
v 3.3 1.2 -0.4
v 3.8 1.2 -0.4
v 4 1.2 -0.4
v 2.7 1.5 0
v 2.9 1.5 0
v 3.1 1.5 0
v 3.3 1.5 0
v 2.8 1.5 -0.1
v 2.9 1.5 -0.1
v 3.1 1.5 -0.1
v 3.2 1.5 -0.1
v 2.8 1.5 -0.5
v 3.2 1.5 -0.5
v 2.7 1.5 -0.6
v 3.3 1.5 -0.6
v 2.6 1.7 -0.2
v 2.7 1.7 -0.2
v 3.3 1.7 -0.2
v 3.4 1.7 -0.2
v 2.6 1.7 -0.3
v 2.7 1.7 -0.3
v 3.3 1.7 -0.3
v 3.4 1.7 -0.3
v 2.7 2 0.2
v 3.3 2 0.2
v 2.7 2 0
v 3.3 2 0
v 2.7 0.1 0
v 2.9 0.1 0
v 3.1 0.1 0
v 3.3 0.1 0
v 2.7 0.1 -0.2
v 2.9 0.1 -0.2
v 3.1 0.1 -0.2
v 3.3 0.1 -0.2
v 2.7 1.4 -0.1
v 2.8 1.4 -0.1
v 3.2 1.4 -0.1
v 3.3 1.4 -0.1
v 2 1.4 -0.2
v 2.2 1.4 -0.2
v 2.7 1.4 -0.2
v 3.3 1.4 -0.2
v 3.8 1.4 -0.2
v 4 1.4 -0.2
v 2 1.4 -0.4
v 2.2 1.4 -0.4
v 2.7 1.4 -0.4
v 3.3 1.4 -0.4
v 3.8 1.4 -0.4
v 4 1.4 -0.4
v 2.7 1.4 -0.5
v 2.8 1.4 -0.5
v 3.2 1.4 -0.5
v 3.3 1.4 -0.5
v 2.6 1.9 -0.2
v 2.7 1.9 -0.2
v 3.3 1.9 -0.2
v 3.4 1.9 -0.2
v 2.6 1.9 -0.3
v 2.7 1.9 -0.3
v 3.3 1.9 -0.3
v 3.4 1.9 -0.3
v 2.7 2.1 0.2
v 3.3 2.1 0.2
v 2.7 2.1 0
v 3.3 2.1 0
v 2.7 2.2 0
v 3.3 2.2 0
v 2.7 2.2 -0.6
v 3.3 2.2 -0.6

# faces
f 3/1/1 2/1/1 1/1/1
f 4/1/1 2/1/1 3/1/1
f 7/1/1 6/1/1 5/1/1
f 8/1/1 6/1/1 7/1/1
f 11/5/1 10/5/1 9/5/1
f 12/5/1 10/5/1 11/5/1
f 13/5/1 10/5/1 12/5/1
f 15/2/1 13/2/1 12/2/1
f 16/2/1 13/2/1 15/2/1
f 18/3/1 16/3/1 15/3/1
f 18/3/1 17/3/1 16/3/1
f 18/3/1 15/3/1 14/3/1
f 19/3/1 17/3/1 18/3/1
f 20/3/1 18/3/1 14/3/1
f 21/3/1 18/3/1 20/3/1
f 22/3/1 17/3/1 19/3/1
f 23/3/1 17/3/1 22/3/1
f 26/1/1 25/1/1 24/1/1
f 27/1/1 25/1/1 26/1/1
f 28/1/1 26/1/1 24/1/1
f 29/1/1 25/1/1 27/1/1
f 31/1/1 28/1/1 24/1/1
f 31/1/1 29/1/1 28/1/1
f 32/1/1 25/1/1 29/1/1
f 32/1/1 29/1/1 31/1/1
f 33/2/1 31/2/1 30/2/1
f 33/2/1 32/2/1 31/2/1
f 34/2/1 32/2/1 33/2/1
f 35/2/1 32/2/1 34/2/1
f 36/2/1 32/2/1 35/2/1
f 39/3/1 38/3/1 37/3/1
f 40/3/1 38/3/1 39/3/1
f 43/5/1 42/5/1 41/5/1
f 44/5/1 42/5/1 43/5/1
f 45/5/1 42/5/1 44/5/1
f 46/2/1 45/2/1 44/2/1
f 47/2/1 45/2/1 46/2/1
f 48/5/2 49/5/2 50/5/2
f 50/5/2 49/5/2 51/5/2
f 51/5/2 49/5/2 52/5/2
f 51/2/2 52/2/2 53/2/2
f 53/2/2 52/2/2 54/2/2
f 55/3/2 56/3/2 57/3/2
f 57/3/2 56/3/2 58/3/2
f 59/5/2 60/5/2 61/5/2
f 61/5/2 60/5/2 62/5/2
f 62/5/2 60/5/2 63/5/2
f 62/2/2 63/2/2 65/2/2
f 65/2/2 63/2/2 66/2/2
f 65/3/2 66/3/2 68/3/2
f 66/3/2 67/3/2 68/3/2
f 64/3/2 65/3/2 68/3/2
f 68/3/2 67/3/2 69/3/2
f 64/3/2 68/3/2 70/3/2
f 70/3/2 68/3/2 71/3/2
f 69/3/2 67/3/2 72/3/2
f 72/3/2 67/3/2 73/3/2
f 74/1/2 75/1/2 76/1/2
f 76/1/2 75/1/2 77/1/2
f 74/1/2 76/1/2 78/1/2
f 77/1/2 75/1/2 79/1/2
f 74/1/2 78/1/2 81/1/2
f 78/1/2 79/1/2 81/1/2
f 79/1/2 75/1/2 82/1/2
f 81/1/2 79/1/2 82/1/2
f 80/2/2 81/2/2 83/2/2
f 81/2/2 82/2/2 83/2/2
f 83/2/2 82/2/2 84/2/2
f 84/2/2 82/2/2 85/2/2
f 85/2/2 82/2/2 86/2/2
f 87/1/2 88/1/2 89/1/2
f 89/1/2 88/1/2 90/1/2
f 91/1/2 92/1/2 93/1/2
f 93/1/2 92/1/2 94/1/2
f 97/2/3 96/2/3 95/2/3
f 98/2/3 96/2/3 97/2/3
f 105/1/3 102/1/3 101/1/3
f 106/1/3 102/1/3 105/1/3
f 107/5/3 100/5/3 99/5/3
f 108/5/3 100/5/3 107/5/3
f 109/1/3 105/1/3 101/1/3
f 110/1/3 105/1/3 109/1/3
f 111/4/3 106/4/3 105/4/3
f 111/1/3 105/1/3 110/1/3
f 112/1/3 102/1/3 106/1/3
f 112/4/3 106/4/3 111/4/3
f 115/4/3 110/4/3 109/4/3
f 116/1/3 111/1/3 110/1/3
f 116/4/3 110/4/3 115/4/3
f 116/1/3 112/1/3 111/1/3
f 117/1/3 112/1/3 116/1/3
f 118/1/3 102/1/3 112/1/3
f 118/1/3 112/1/3 117/1/3
f 119/1/3 117/1/3 116/1/3
f 119/1/3 116/1/3 115/1/3
f 119/4/3 118/4/3 117/4/3
f 120/1/3 102/1/3 118/1/3
f 120/4/3 118/4/3 119/4/3
f 121/5/3 114/5/3 113/5/3
f 122/5/3 114/5/3 121/5/3
f 123/1/3 119/1/3 115/1/3
f 123/1/3 120/1/3 119/1/3
f 124/1/3 102/1/3 120/1/3
f 124/1/3 120/1/3 123/1/3
f 125/2/3 104/2/3 103/2/3
f 126/2/3 104/2/3 125/2/3
f 129/3/3 128/3/3 127/3/3
f 131/3/3 129/3/3 127/3/3
f 131/3/3 130/3/3 129/3/3
f 132/3/3 130/3/3 131/3/3
f 133/3/3 130/3/3 132/3/3
f 134/3/3 131/3/3 127/3/3
f 134/4/3 132/4/3 131/4/3
f 135/3/3 133/3/3 132/3/3
f 135/4/3 132/4/3 134/4/3
f 136/3/3 133/3/3 135/3/3
f 137/3/3 135/3/3 134/3/3
f 137/3/3 136/3/3 135/3/3
f 138/3/3 136/3/3 137/3/3
f 139/3/3 134/3/3 127/3/3
f 139/3/3 137/3/3 134/3/3
f 140/3/3 137/3/3 139/3/3
f 143/1/3 142/1/3 141/1/3
f 144/1/3 142/1/3 143/1/3
f 149/3/3 144/3/3 143/3/3
f 150/3/3 144/3/3 149/3/3
f 151/1/3 146/1/3 145/1/3
f 152/1/3 146/1/3 151/1/3
f 153/2/3 148/2/3 147/2/3
f 154/2/3 148/2/3 153/2/3
f 157/2/3 156/2/3 155/2/3
f 158/2/3 156/2/3 157/2/3
f 163/1/3 162/1/3 161/1/3
f 164/1/3 162/1/3 163/1/3
f 165/3/3 160/3/3 159/3/3
f 166/3/3 160/3/3 165/3/3
f 167/1/3 166/1/3 165/1/3
f 168/1/3 166/1/3 167/1/3
f 169/1/4 170/1/4 171/1/4
f 171/1/4 170/1/4 172/1/4
f 173/1/4 174/1/4 175/1/4
f 175/1/4 174/1/4 176/1/4
f 177/1/4 178/1/4 179/1/4
f 179/1/4 178/1/4 180/1/4
f 179/3/4 180/3/4 184/3/4
f 184/3/4 180/3/4 185/3/4
f 181/5/4 182/5/4 186/5/4
f 182/2/4 183/2/4 187/2/4
f 186/5/4 182/5/4 187/5/4
f 187/2/4 183/2/4 188/2/4
f 189/5/4 190/5/4 192/5/4
f 190/2/4 191/2/4 193/2/4
f 192/5/4 190/5/4 193/5/4
f 193/2/4 191/2/4 194/2/4
f 195/3/4 196/3/4 197/3/4
f 197/3/4 196/3/4 198/3/4
f 197/1/4 198/1/4 199/1/4
f 199/1/4 198/1/4 200/1/4
f 201/3/4 202/3/4 203/3/4
f 201/3/4 203/3/4 205/3/4
f 203/3/4 204/3/4 205/3/4
f 205/3/4 204/3/4 206/3/4
f 201/3/4 205/3/4 207/3/4
f 207/3/4 205/3/4 208/3/4
f 209/1/4 210/1/4 212/1/4
f 210/2/4 211/2/4 213/2/4
f 212/1/4 210/1/4 213/1/4
f 213/2/4 211/2/4 214/2/4
f 219/5/5 216/5/5 215/5/5
f 220/5/5 216/5/5 219/5/5
f 221/5/5 218/5/5 217/5/5
f 222/5/5 218/5/5 221/5/5
f 225/3/5 224/3/5 223/3/5
f 226/3/5 224/3/5 225/3/5
f 227/3/5 224/3/5 226/3/5
f 228/3/5 224/3/5 227/3/5
f 230/3/5 227/3/5 226/3/5
f 231/3/5 227/3/5 230/3/5
f 233/3/5 230/3/5 229/3/5
f 233/3/5 232/3/5 231/3/5
f 233/3/5 231/3/5 230/3/5
f 234/3/5 232/3/5 233/3/5
f 241/1/5 236/1/5 235/1/5
f 242/3/5 237/3/5 236/3/5
f 242/1/5 236/1/5 241/1/5
f 243/3/5 237/3/5 242/3/5
f 244/3/5 239/3/5 238/3/5
f 245/1/5 240/1/5 239/1/5
f 245/3/5 239/3/5 244/3/5
f 246/1/5 240/1/5 245/1/5
f 251/1/5 248/1/5 247/1/5
f 252/4/5 249/4/5 248/4/5
f 252/1/5 248/1/5 251/1/5
f 253/1/5 250/1/5 249/1/5
f 253/4/5 249/4/5 252/4/5
f 254/1/5 250/1/5 253/1/5
f 255/1/5 251/1/5 247/1/5
f 256/1/5 250/1/5 254/1/5
f 257/1/5 255/1/5 247/1/5
f 257/1/5 256/1/5 255/1/5
f 258/1/5 250/1/5 256/1/5
f 258/1/5 256/1/5 257/1/5
f 263/1/5 260/1/5 259/1/5
f 264/1/5 260/1/5 263/1/5
f 265/1/5 262/1/5 261/1/5
f 266/1/5 262/1/5 265/1/5
f 269/2/5 268/2/5 267/2/5
f 270/2/5 268/2/5 269/2/5
f 271/5/6 272/5/6 275/5/6
f 275/5/6 272/5/6 276/5/6
f 273/5/6 274/5/6 277/5/6
f 277/5/6 274/5/6 278/5/6
f 279/3/6 280/3/6 285/3/6
f 281/3/6 282/3/6 286/3/6
f 283/1/6 284/1/6 289/1/6
f 284/3/6 285/3/6 290/3/6
f 289/1/6 284/1/6 290/1/6
f 285/3/6 280/3/6 291/3/6
f 290/3/6 285/3/6 291/3/6
f 281/3/6 286/3/6 292/3/6
f 286/3/6 287/3/6 292/3/6
f 287/1/6 288/1/6 293/1/6
f 292/3/6 287/3/6 293/3/6
f 293/1/6 288/1/6 294/1/6
f 291/3/6 280/3/6 295/3/6
f 295/3/6 280/3/6 296/3/6
f 281/3/6 292/3/6 297/3/6
f 297/3/6 292/3/6 298/3/6
f 299/1/6 300/1/6 303/1/6
f 303/1/6 300/1/6 304/1/6
f 301/1/6 302/1/6 305/1/6
f 305/1/6 302/1/6 306/1/6
f 307/2/6 308/2/6 309/2/6
f 309/2/6 308/2/6 310/2/6
f 311/2/6 312/2/6 313/2/6
f 313/2/6 312/2/6 314/2/6
