# MagicaVoxel @ Ephtracy

# group
o Woman2

# material
mtllib Trainvasion Moterman-22-Woman2.mtl
usemtl palette

# normals
vn -1 0 0
vn 1 0 0
vn 0 0 1
vn 0 0 -1
vn 0 -1 0
vn 0 1 0

# texcoords
vt 0.369141 0.5
vt 0.951172 0.5
vt 0.978516 0.5
vt 0.990234 0.5
vt 0.994141 0.5

# verts
v 7.4 1.2 -0.2
v 7.4 1.2 -0.4
v 7.4 1.4 -0.2
v 7.4 1.4 -0.4
v 8 1.5 -0.1
v 8 1.5 -0.7
v 8 1.7 -0.2
v 8 1.7 -0.3
v 8 1.8 0
v 8 1.8 -0.1
v 8 1.9 -0.2
v 8 1.9 -0.3
v 8 2 0
v 8 2 -0.7
v 8.1 0 0
v 8.1 0 -0.4
v 8.1 0.1 0
v 8.1 0.1 -0.2
v 8.1 0.1 -0.4
v 8.1 0.7 -0.1
v 8.1 0.7 -0.2
v 8.1 0.7 -0.4
v 8.1 0.7 -0.5
v 8.1 1.2 -0.2
v 8.1 1.2 -0.4
v 8.1 1.4 -0.1
v 8.1 1.4 -0.2
v 8.1 1.4 -0.4
v 8.1 1.4 -0.5
v 8.1 1.5 0
v 8.1 1.5 -0.1
v 8.1 1.8 0
v 8.1 1.8 -0.1
v 8.1 1.9 0.1
v 8.1 1.9 0
v 8.1 2 0.2
v 8.1 2 0.1
v 8.1 2 0
v 8.1 2 -0.6
v 8.1 2.1 0.2
v 8.1 2.1 0
v 8.1 2.2 0
v 8.1 2.2 -0.6
v 8.2 1.4 -0.1
v 8.2 1.4 -0.5
v 8.2 1.5 -0.1
v 8.2 1.5 -0.5
v 8.5 0 0
v 8.5 0 -0.4
v 8.5 0.1 0
v 8.5 0.1 -0.2
v 8.5 0.1 -0.4
v 8.5 0.7 -0.2
v 8.5 0.7 -0.4
v 8.3 0 0
v 8.3 0 -0.4
v 8.3 0.1 0
v 8.3 0.1 -0.2
v 8.3 0.1 -0.4
v 8.3 0.7 -0.2
v 8.3 0.7 -0.4
v 8.6 1.4 -0.1
v 8.6 1.4 -0.5
v 8.6 1.5 -0.1
v 8.6 1.5 -0.5
v 8.7 0 0
v 8.7 0 -0.4
v 8.7 0.1 0
v 8.7 0.1 -0.2
v 8.7 0.1 -0.4
v 8.7 0.7 -0.1
v 8.7 0.7 -0.2
v 8.7 0.7 -0.4
v 8.7 0.7 -0.5
v 8.7 1.2 -0.2
v 8.7 1.2 -0.4
v 8.7 1.4 -0.1
v 8.7 1.4 -0.2
v 8.7 1.4 -0.4
v 8.7 1.4 -0.5
v 8.7 1.5 0
v 8.7 1.5 -0.1
v 8.7 1.8 0
v 8.7 1.8 -0.1
v 8.7 1.9 0.1
v 8.7 1.9 0
v 8.7 2 0.2
v 8.7 2 0.1
v 8.7 2 0
v 8.7 2 -0.6
v 8.7 2.1 0.2
v 8.7 2.1 0
v 8.7 2.2 0
v 8.7 2.2 -0.6
v 8.8 1.5 -0.1
v 8.8 1.5 -0.7
v 8.8 1.7 -0.2
v 8.8 1.7 -0.3
v 8.8 1.8 0
v 8.8 1.8 -0.1
v 8.8 1.9 -0.2
v 8.8 1.9 -0.3
v 8.8 2 0
v 8.8 2 -0.7
v 9.4 1.2 -0.2
v 9.4 1.2 -0.4
v 9.4 1.4 -0.2
v 9.4 1.4 -0.4
v 8.1 2 0.2
v 8.1 2.1 0.2
v 8.7 2 0.2
v 8.7 2.1 0.2
v 8.1 1.9 0.1
v 8.1 2 0.1
v 8.7 1.9 0.1
v 8.7 2 0.1
v 8 1.8 0
v 8 2 0
v 8.1 0 0
v 8.1 0.1 0
v 8.1 1.5 0
v 8.1 1.8 0
v 8.1 1.9 0
v 8.1 2 0
v 8.1 2.1 0
v 8.1 2.2 0
v 8.2 1.7 0
v 8.2 1.9 0
v 8.3 0 0
v 8.3 0.1 0
v 8.3 1.5 0
v 8.3 1.6 0
v 8.3 1.7 0
v 8.3 1.9 0
v 8.5 0 0
v 8.5 0.1 0
v 8.5 1.5 0
v 8.5 1.6 0
v 8.5 1.7 0
v 8.5 1.9 0
v 8.6 1.7 0
v 8.6 1.9 0
v 8.7 0 0
v 8.7 0.1 0
v 8.7 1.5 0
v 8.7 1.8 0
v 8.7 1.9 0
v 8.7 2 0
v 8.7 2.1 0
v 8.7 2.2 0
v 8.8 1.8 0
v 8.8 2 0
v 8 1.5 -0.1
v 8 1.8 -0.1
v 8.1 0.7 -0.1
v 8.1 1.4 -0.1
v 8.1 1.5 -0.1
v 8.1 1.8 -0.1
v 8.2 1.4 -0.1
v 8.2 1.5 -0.1
v 8.3 0.9 -0.1
v 8.3 1.4 -0.1
v 8.3 1.5 -0.1
v 8.5 0.9 -0.1
v 8.5 1.4 -0.1
v 8.5 1.5 -0.1
v 8.6 1.4 -0.1
v 8.6 1.5 -0.1
v 8.7 0.7 -0.1
v 8.7 1.4 -0.1
v 8.7 1.5 -0.1
v 8.7 1.8 -0.1
v 8.8 1.5 -0.1
v 8.8 1.8 -0.1
v 7.4 1.2 -0.2
v 7.4 1.4 -0.2
v 7.6 1.2 -0.2
v 7.6 1.4 -0.2
v 8.1 0.1 -0.2
v 8.1 0.7 -0.2
v 8.1 1.2 -0.2
v 8.1 1.4 -0.2
v 8.3 0.1 -0.2
v 8.3 0.7 -0.2
v 8.5 0.1 -0.2
v 8.5 0.7 -0.2
v 8.7 0.1 -0.2
v 8.7 0.7 -0.2
v 8.7 1.2 -0.2
v 8.7 1.4 -0.2
v 9.2 1.2 -0.2
v 9.2 1.4 -0.2
v 9.4 1.2 -0.2
v 9.4 1.4 -0.2
v 7.4 1.2 -0.4
v 7.4 1.4 -0.4
v 7.6 1.2 -0.4
v 7.6 1.4 -0.4
v 8.1 0 -0.4
v 8.1 0.1 -0.4
v 8.1 0.7 -0.4
v 8.1 1.2 -0.4
v 8.1 1.4 -0.4
v 8.3 0 -0.4
v 8.3 0.1 -0.4
v 8.3 0.7 -0.4
v 8.5 0 -0.4
v 8.5 0.1 -0.4
v 8.5 0.7 -0.4
v 8.7 0 -0.4
v 8.7 0.1 -0.4
v 8.7 0.7 -0.4
v 8.7 1.2 -0.4
v 8.7 1.4 -0.4
v 9.2 1.2 -0.4
v 9.2 1.4 -0.4
v 9.4 1.2 -0.4
v 9.4 1.4 -0.4
v 8.1 0.7 -0.5
v 8.1 1.4 -0.5
v 8.2 1.4 -0.5
v 8.2 1.5 -0.5
v 8.6 1.4 -0.5
v 8.6 1.5 -0.5
v 8.7 0.7 -0.5
v 8.7 1.4 -0.5
v 8.1 2 -0.6
v 8.1 2.2 -0.6
v 8.7 2 -0.6
v 8.7 2.2 -0.6
v 8 1.5 -0.7
v 8 2 -0.7
v 8.8 1.5 -0.7
v 8.8 2 -0.7
v 8.1 0 0
v 8.3 0 0
v 8.5 0 0
v 8.7 0 0
v 8.1 0 -0.4
v 8.3 0 -0.4
v 8.5 0 -0.4
v 8.7 0 -0.4
v 8.1 0.7 -0.1
v 8.7 0.7 -0.1
v 8.1 0.7 -0.2
v 8.3 0.7 -0.2
v 8.5 0.7 -0.2
v 8.7 0.7 -0.2
v 8.1 0.7 -0.4
v 8.3 0.7 -0.4
v 8.5 0.7 -0.4
v 8.7 0.7 -0.4
v 8.1 0.7 -0.5
v 8.7 0.7 -0.5
v 7.4 1.2 -0.2
v 7.6 1.2 -0.2
v 8.1 1.2 -0.2
v 8.7 1.2 -0.2
v 9.2 1.2 -0.2
v 9.4 1.2 -0.2
v 7.4 1.2 -0.4
v 7.6 1.2 -0.4
v 8.1 1.2 -0.4
v 8.7 1.2 -0.4
v 9.2 1.2 -0.4
v 9.4 1.2 -0.4
v 8.1 1.5 0
v 8.3 1.5 0
v 8.5 1.5 0
v 8.7 1.5 0
v 8 1.5 -0.1
v 8.1 1.5 -0.1
v 8.2 1.5 -0.1
v 8.3 1.5 -0.1
v 8.5 1.5 -0.1
v 8.6 1.5 -0.1
v 8.7 1.5 -0.1
v 8.8 1.5 -0.1
v 8.2 1.5 -0.5
v 8.6 1.5 -0.5
v 8.1 1.5 -0.6
v 8.7 1.5 -0.6
v 8 1.5 -0.7
v 8.8 1.5 -0.7
v 8 1.8 0
v 8.1 1.8 0
v 8.7 1.8 0
v 8.8 1.8 0
v 8 1.8 -0.1
v 8.1 1.8 -0.1
v 8.7 1.8 -0.1
v 8.8 1.8 -0.1
v 8.1 1.9 0.1
v 8.7 1.9 0.1
v 8.1 1.9 0
v 8.2 1.9 0
v 8.3 1.9 0
v 8.5 1.9 0
v 8.6 1.9 0
v 8.7 1.9 0
v 8.1 2 0.2
v 8.7 2 0.2
v 8.1 2 0.1
v 8.7 2 0.1
v 8.1 0.1 0
v 8.3 0.1 0
v 8.5 0.1 0
v 8.7 0.1 0
v 8.1 0.1 -0.2
v 8.3 0.1 -0.2
v 8.5 0.1 -0.2
v 8.7 0.1 -0.2
v 8.1 1.4 -0.1
v 8.2 1.4 -0.1
v 8.6 1.4 -0.1
v 8.7 1.4 -0.1
v 7.4 1.4 -0.2
v 7.6 1.4 -0.2
v 8.1 1.4 -0.2
v 8.7 1.4 -0.2
v 9.2 1.4 -0.2
v 9.4 1.4 -0.2
v 7.4 1.4 -0.4
v 7.6 1.4 -0.4
v 8.1 1.4 -0.4
v 8.7 1.4 -0.4
v 9.2 1.4 -0.4
v 9.4 1.4 -0.4
v 8.1 1.4 -0.5
v 8.2 1.4 -0.5
v 8.6 1.4 -0.5
v 8.7 1.4 -0.5
v 8 2 0
v 8.1 2 0
v 8.7 2 0
v 8.8 2 0
v 8.1 2 -0.6
v 8.7 2 -0.6
v 8 2 -0.7
v 8.8 2 -0.7
v 8.1 2.1 0.2
v 8.7 2.1 0.2
v 8.1 2.1 0
v 8.7 2.1 0
v 8.1 2.2 0
v 8.7 2.2 0
v 8.1 2.2 -0.6
v 8.7 2.2 -0.6

# faces
f 3/1/1 2/1/1 1/1/1
f 4/1/1 2/1/1 3/1/1
f 7/4/1 6/4/1 5/4/1
f 8/4/1 6/4/1 7/4/1
f 10/4/1 7/4/1 5/4/1
f 11/1/1 8/1/1 7/1/1
f 11/4/1 10/4/1 9/4/1
f 11/4/1 7/4/1 10/4/1
f 12/4/1 6/4/1 8/4/1
f 12/1/1 8/1/1 11/1/1
f 13/4/1 11/4/1 9/4/1
f 13/4/1 12/4/1 11/4/1
f 14/4/1 6/4/1 12/4/1
f 14/4/1 12/4/1 13/4/1
f 17/5/1 16/5/1 15/5/1
f 18/5/1 16/5/1 17/5/1
f 19/5/1 16/5/1 18/5/1
f 21/2/1 19/2/1 18/2/1
f 22/2/1 19/2/1 21/2/1
f 24/3/1 22/3/1 21/3/1
f 24/3/1 23/3/1 22/3/1
f 24/3/1 21/3/1 20/3/1
f 25/3/1 23/3/1 24/3/1
f 26/3/1 24/3/1 20/3/1
f 27/3/1 24/3/1 26/3/1
f 28/3/1 23/3/1 25/3/1
f 29/3/1 23/3/1 28/3/1
f 32/1/1 31/1/1 30/1/1
f 33/1/1 31/1/1 32/1/1
f 37/4/1 35/4/1 34/4/1
f 38/4/1 35/4/1 37/4/1
f 40/2/1 38/2/1 37/2/1
f 40/2/1 39/2/1 38/2/1
f 40/2/1 37/2/1 36/2/1
f 41/2/1 39/2/1 40/2/1
f 42/2/1 39/2/1 41/2/1
f 43/2/1 39/2/1 42/2/1
f 46/3/1 45/3/1 44/3/1
f 47/3/1 45/3/1 46/3/1
f 50/5/1 49/5/1 48/5/1
f 51/5/1 49/5/1 50/5/1
f 52/5/1 49/5/1 51/5/1
f 53/2/1 52/2/1 51/2/1
f 54/2/1 52/2/1 53/2/1
f 55/5/2 56/5/2 57/5/2
f 57/5/2 56/5/2 58/5/2
f 58/5/2 56/5/2 59/5/2
f 58/2/2 59/2/2 60/2/2
f 60/2/2 59/2/2 61/2/2
f 62/3/2 63/3/2 64/3/2
f 64/3/2 63/3/2 65/3/2
f 66/5/2 67/5/2 68/5/2
f 68/5/2 67/5/2 69/5/2
f 69/5/2 67/5/2 70/5/2
f 69/2/2 70/2/2 72/2/2
f 72/2/2 70/2/2 73/2/2
f 72/3/2 73/3/2 75/3/2
f 73/3/2 74/3/2 75/3/2
f 71/3/2 72/3/2 75/3/2
f 75/3/2 74/3/2 76/3/2
f 71/3/2 75/3/2 77/3/2
f 77/3/2 75/3/2 78/3/2
f 76/3/2 74/3/2 79/3/2
f 79/3/2 74/3/2 80/3/2
f 81/1/2 82/1/2 83/1/2
f 83/1/2 82/1/2 84/1/2
f 85/4/2 86/4/2 88/4/2
f 88/4/2 86/4/2 89/4/2
f 88/2/2 89/2/2 91/2/2
f 89/2/2 90/2/2 91/2/2
f 87/2/2 88/2/2 91/2/2
f 91/2/2 90/2/2 92/2/2
f 92/2/2 90/2/2 93/2/2
f 93/2/2 90/2/2 94/2/2
f 95/4/2 96/4/2 97/4/2
f 97/4/2 96/4/2 98/4/2
f 95/4/2 97/4/2 100/4/2
f 97/1/2 98/1/2 101/1/2
f 99/4/2 100/4/2 101/4/2
f 100/4/2 97/4/2 101/4/2
f 98/4/2 96/4/2 102/4/2
f 101/1/2 98/1/2 102/1/2
f 99/4/2 101/4/2 103/4/2
f 101/4/2 102/4/2 103/4/2
f 102/4/2 96/4/2 104/4/2
f 103/4/2 102/4/2 104/4/2
f 105/1/2 106/1/2 107/1/2
f 107/1/2 106/1/2 108/1/2
f 111/2/3 110/2/3 109/2/3
f 112/2/3 110/2/3 111/2/3
f 115/4/3 114/4/3 113/4/3
f 116/4/3 114/4/3 115/4/3
f 122/4/3 118/4/3 117/4/3
f 123/4/3 118/4/3 122/4/3
f 124/4/3 118/4/3 123/4/3
f 127/1/3 122/1/3 121/1/3
f 127/1/3 123/1/3 122/1/3
f 128/1/3 123/1/3 127/1/3
f 129/5/3 120/5/3 119/5/3
f 130/5/3 120/5/3 129/5/3
f 131/1/3 127/1/3 121/1/3
f 132/1/3 127/1/3 131/1/3
f 133/4/3 128/4/3 127/4/3
f 133/1/3 127/1/3 132/1/3
f 134/4/3 128/4/3 133/4/3
f 137/4/3 132/4/3 131/4/3
f 138/1/3 133/1/3 132/1/3
f 138/4/3 132/4/3 137/4/3
f 138/1/3 134/1/3 133/1/3
f 139/1/3 134/1/3 138/1/3
f 140/1/3 134/1/3 139/1/3
f 141/1/3 138/1/3 137/1/3
f 141/1/3 139/1/3 138/1/3
f 141/4/3 140/4/3 139/4/3
f 142/4/3 140/4/3 141/4/3
f 143/5/3 136/5/3 135/5/3
f 144/5/3 136/5/3 143/5/3
f 145/1/3 141/1/3 137/1/3
f 145/1/3 142/1/3 141/1/3
f 146/1/3 142/1/3 145/1/3
f 147/1/3 142/1/3 146/1/3
f 149/2/3 126/2/3 125/2/3
f 150/2/3 126/2/3 149/2/3
f 151/4/3 147/4/3 146/4/3
f 151/4/3 148/4/3 147/4/3
f 152/4/3 148/4/3 151/4/3
f 157/4/3 154/4/3 153/4/3
f 158/4/3 154/4/3 157/4/3
f 159/3/3 156/3/3 155/3/3
f 161/3/3 159/3/3 155/3/3
f 161/3/3 160/3/3 159/3/3
f 162/3/3 160/3/3 161/3/3
f 163/3/3 160/3/3 162/3/3
f 164/3/3 161/3/3 155/3/3
f 164/4/3 162/4/3 161/4/3
f 165/3/3 163/3/3 162/3/3
f 165/4/3 162/4/3 164/4/3
f 166/3/3 163/3/3 165/3/3
f 167/3/3 165/3/3 164/3/3
f 167/3/3 166/3/3 165/3/3
f 168/3/3 166/3/3 167/3/3
f 169/3/3 164/3/3 155/3/3
f 169/3/3 167/3/3 164/3/3
f 170/3/3 167/3/3 169/3/3
f 173/4/3 172/4/3 171/4/3
f 174/4/3 172/4/3 173/4/3
f 177/1/3 176/1/3 175/1/3
f 178/1/3 176/1/3 177/1/3
f 181/3/3 178/3/3 177/3/3
f 182/3/3 178/3/3 181/3/3
f 183/2/3 180/2/3 179/2/3
f 184/2/3 180/2/3 183/2/3
f 187/2/3 186/2/3 185/2/3
f 188/2/3 186/2/3 187/2/3
f 191/3/3 190/3/3 189/3/3
f 192/3/3 190/3/3 191/3/3
f 193/1/3 192/1/3 191/1/3
f 194/1/3 192/1/3 193/1/3
f 195/1/4 196/1/4 197/1/4
f 197/1/4 196/1/4 198/1/4
f 197/3/4 198/3/4 202/3/4
f 202/3/4 198/3/4 203/3/4
f 199/5/4 200/5/4 204/5/4
f 200/2/4 201/2/4 205/2/4
f 204/5/4 200/5/4 205/5/4
f 205/2/4 201/2/4 206/2/4
f 207/5/4 208/5/4 210/5/4
f 208/2/4 209/2/4 211/2/4
f 210/5/4 208/5/4 211/5/4
f 211/2/4 209/2/4 212/2/4
f 213/3/4 214/3/4 215/3/4
f 215/3/4 214/3/4 216/3/4
f 215/1/4 216/1/4 217/1/4
f 217/1/4 216/1/4 218/1/4
f 219/3/4 220/3/4 221/3/4
f 219/3/4 221/3/4 223/3/4
f 221/3/4 222/3/4 223/3/4
f 223/3/4 222/3/4 224/3/4
f 219/3/4 223/3/4 225/3/4
f 225/3/4 223/3/4 226/3/4
f 227/2/4 228/2/4 229/2/4
f 229/2/4 228/2/4 230/2/4
f 231/4/4 232/4/4 233/4/4
f 233/4/4 232/4/4 234/4/4
f 239/5/5 236/5/5 235/5/5
f 240/5/5 236/5/5 239/5/5
f 241/5/5 238/5/5 237/5/5
f 242/5/5 238/5/5 241/5/5
f 245/3/5 244/3/5 243/3/5
f 246/3/5 244/3/5 245/3/5
f 247/3/5 244/3/5 246/3/5
f 248/3/5 244/3/5 247/3/5
f 250/3/5 247/3/5 246/3/5
f 251/3/5 247/3/5 250/3/5
f 253/3/5 250/3/5 249/3/5
f 253/3/5 252/3/5 251/3/5
f 253/3/5 251/3/5 250/3/5
f 254/3/5 252/3/5 253/3/5
f 261/1/5 256/1/5 255/1/5
f 262/3/5 257/3/5 256/3/5
f 262/1/5 256/1/5 261/1/5
f 263/3/5 257/3/5 262/3/5
f 264/3/5 259/3/5 258/3/5
f 265/1/5 260/1/5 259/1/5
f 265/3/5 259/3/5 264/3/5
f 266/1/5 260/1/5 265/1/5
f 272/1/5 268/1/5 267/1/5
f 273/1/5 268/1/5 272/1/5
f 274/4/5 269/4/5 268/4/5
f 274/1/5 268/1/5 273/1/5
f 275/1/5 270/1/5 269/1/5
f 275/4/5 269/4/5 274/4/5
f 276/1/5 270/1/5 275/1/5
f 277/1/5 270/1/5 276/1/5
f 279/1/5 273/1/5 272/1/5
f 280/1/5 277/1/5 276/1/5
f 281/1/5 279/1/5 272/1/5
f 281/1/5 280/1/5 279/1/5
f 281/4/5 272/4/5 271/4/5
f 282/4/5 278/4/5 277/4/5
f 282/1/5 280/1/5 281/1/5
f 282/1/5 277/1/5 280/1/5
f 283/4/5 281/4/5 271/4/5
f 283/4/5 282/4/5 281/4/5
f 284/4/5 278/4/5 282/4/5
f 284/4/5 282/4/5 283/4/5
f 289/4/5 286/4/5 285/4/5
f 290/4/5 286/4/5 289/4/5
f 291/4/5 288/4/5 287/4/5
f 292/4/5 288/4/5 291/4/5
f 295/4/5 294/4/5 293/4/5
f 296/4/5 294/4/5 295/4/5
f 297/4/5 294/4/5 296/4/5
f 298/4/5 294/4/5 297/4/5
f 299/4/5 294/4/5 298/4/5
f 300/4/5 294/4/5 299/4/5
f 303/2/5 302/2/5 301/2/5
f 304/2/5 302/2/5 303/2/5
f 305/5/6 306/5/6 309/5/6
f 309/5/6 306/5/6 310/5/6
f 307/5/6 308/5/6 311/5/6
f 311/5/6 308/5/6 312/5/6
f 313/3/6 314/3/6 319/3/6
f 315/3/6 316/3/6 320/3/6
f 317/1/6 318/1/6 323/1/6
f 318/3/6 319/3/6 324/3/6
f 323/1/6 318/1/6 324/1/6
f 319/3/6 314/3/6 325/3/6
f 324/3/6 319/3/6 325/3/6
f 315/3/6 320/3/6 326/3/6
f 320/3/6 321/3/6 326/3/6
f 321/1/6 322/1/6 327/1/6
f 326/3/6 321/3/6 327/3/6
f 327/1/6 322/1/6 328/1/6
f 325/3/6 314/3/6 329/3/6
f 329/3/6 314/3/6 330/3/6
f 315/3/6 326/3/6 331/3/6
f 331/3/6 326/3/6 332/3/6
f 333/4/6 334/4/6 337/4/6
f 335/4/6 336/4/6 338/4/6
f 333/4/6 337/4/6 339/4/6
f 337/4/6 338/4/6 339/4/6
f 338/4/6 336/4/6 340/4/6
f 339/4/6 338/4/6 340/4/6
f 341/2/6 342/2/6 343/2/6
f 343/2/6 342/2/6 344/2/6
f 345/2/6 346/2/6 347/2/6
f 347/2/6 346/2/6 348/2/6
