# MagicaVoxel @ Ephtracy

# group
o Parking Meter

# material
mtllib Trainvasion Moterman-8-Parking Meter.mtl
usemtl palette

# normals
vn -1 0 0
vn 1 0 0
vn 0 0 1
vn 0 0 -1
vn 0 -1 0
vn 0 1 0

# texcoords
vt 0.115234 0.5
vt 0.962891 0.5
vt 0.982422 0.5
vt 0.986328 0.5

# verts
v -5 1.2 0.1
v -5 1.2 0
v -5 1.3 0.2
v -5 1.3 0.1
v -5 1.3 0
v -5 1.3 -0.1
v -5 1.6 0.2
v -5 1.6 0.1
v -5 1.6 0
v -5 1.6 -0.1
v -5 1.7 0.1
v -5 1.7 0
v -4.9 0 0.1
v -4.9 0 0
v -4.9 1.2 0.2
v -4.9 1.2 0.1
v -4.9 1.2 0
v -4.9 1.2 -0.1
v -4.9 1.3 0.2
v -4.9 1.3 0.1
v -4.9 1.3 0
v -4.9 1.3 -0.1
v -4.9 1.7 0.1
v -4.9 1.7 0
v -4.9 1.8 0.1
v -4.9 1.8 0
v -4.8 0 0.1
v -4.8 0 0
v -4.8 1.2 0.2
v -4.8 1.2 0.1
v -4.8 1.2 0
v -4.8 1.2 -0.1
v -4.8 1.3 0.2
v -4.8 1.3 0.1
v -4.8 1.3 0
v -4.8 1.3 -0.1
v -4.8 1.7 0.1
v -4.8 1.7 0
v -4.8 1.8 0.1
v -4.8 1.8 0
v -4.7 1.2 0.1
v -4.7 1.2 0
v -4.7 1.3 0.2
v -4.7 1.3 0.1
v -4.7 1.3 0
v -4.7 1.3 -0.1
v -4.7 1.6 0.2
v -4.7 1.6 0.1
v -4.7 1.6 0
v -4.7 1.6 -0.1
v -4.7 1.7 0.1
v -4.7 1.7 0
v -5 1.3 0.2
v -5 1.6 0.2
v -4.9 1.2 0.2
v -4.9 1.3 0.2
v -4.9 1.4 0.2
v -4.9 1.5 0.2
v -4.8 1.2 0.2
v -4.8 1.3 0.2
v -4.8 1.4 0.2
v -4.8 1.5 0.2
v -4.7 1.3 0.2
v -4.7 1.6 0.2
v -5 1.2 0.1
v -5 1.3 0.1
v -5 1.6 0.1
v -5 1.7 0.1
v -4.9 0 0.1
v -4.9 1.2 0.1
v -4.9 1.3 0.1
v -4.9 1.7 0.1
v -4.9 1.8 0.1
v -4.8 0 0.1
v -4.8 1.2 0.1
v -4.8 1.3 0.1
v -4.8 1.7 0.1
v -4.8 1.8 0.1
v -4.7 1.2 0.1
v -4.7 1.3 0.1
v -4.7 1.6 0.1
v -4.7 1.7 0.1
v -5 1.2 0
v -5 1.3 0
v -5 1.6 0
v -5 1.7 0
v -4.9 0 0
v -4.9 1.2 0
v -4.9 1.3 0
v -4.9 1.7 0
v -4.9 1.8 0
v -4.8 0 0
v -4.8 1.2 0
v -4.8 1.3 0
v -4.8 1.7 0
v -4.8 1.8 0
v -4.7 1.2 0
v -4.7 1.3 0
v -4.7 1.6 0
v -4.7 1.7 0
v -5 1.3 -0.1
v -5 1.6 -0.1
v -4.9 1.2 -0.1
v -4.9 1.3 -0.1
v -4.9 1.4 -0.1
v -4.9 1.5 -0.1
v -4.8 1.2 -0.1
v -4.8 1.3 -0.1
v -4.8 1.4 -0.1
v -4.8 1.5 -0.1
v -4.7 1.3 -0.1
v -4.7 1.6 -0.1
v -4.9 0 0.1
v -4.8 0 0.1
v -4.9 0 0
v -4.8 0 0
v -4.9 1.2 0.2
v -4.8 1.2 0.2
v -5 1.2 0.1
v -4.9 1.2 0.1
v -4.8 1.2 0.1
v -4.7 1.2 0.1
v -5 1.2 0
v -4.9 1.2 0
v -4.8 1.2 0
v -4.7 1.2 0
v -4.9 1.2 -0.1
v -4.8 1.2 -0.1
v -5 1.3 0.2
v -4.9 1.3 0.2
v -4.8 1.3 0.2
v -4.7 1.3 0.2
v -5 1.3 0.1
v -4.9 1.3 0.1
v -4.8 1.3 0.1
v -4.7 1.3 0.1
v -5 1.3 0
v -4.9 1.3 0
v -4.8 1.3 0
v -4.7 1.3 0
v -5 1.3 -0.1
v -4.9 1.3 -0.1
v -4.8 1.3 -0.1
v -4.7 1.3 -0.1
v -5 1.6 0.2
v -4.7 1.6 0.2
v -5 1.6 0.1
v -4.7 1.6 0.1
v -5 1.6 0
v -4.7 1.6 0
v -5 1.6 -0.1
v -4.7 1.6 -0.1
v -5 1.7 0.1
v -4.9 1.7 0.1
v -4.8 1.7 0.1
v -4.7 1.7 0.1
v -5 1.7 0
v -4.9 1.7 0
v -4.8 1.7 0
v -4.7 1.7 0
v -4.9 1.8 0.1
v -4.8 1.8 0.1
v -4.9 1.8 0
v -4.8 1.8 0

# faces
f 4/4/1 2/4/1 1/4/1
f 5/4/1 2/4/1 4/4/1
f 7/4/1 4/4/1 3/4/1
f 7/4/1 6/4/1 5/4/1
f 7/4/1 5/4/1 4/4/1
f 8/4/1 6/4/1 7/4/1
f 9/4/1 6/4/1 8/4/1
f 10/4/1 6/4/1 9/4/1
f 11/4/1 9/4/1 8/4/1
f 12/4/1 9/4/1 11/4/1
f 16/3/1 14/3/1 13/3/1
f 17/3/1 14/3/1 16/3/1
f 19/4/1 16/4/1 15/4/1
f 20/4/1 16/4/1 19/4/1
f 21/4/1 18/4/1 17/4/1
f 22/4/1 18/4/1 21/4/1
f 25/1/1 24/1/1 23/1/1
f 26/1/1 24/1/1 25/1/1
f 27/3/2 28/3/2 30/3/2
f 30/3/2 28/3/2 31/3/2
f 29/4/2 30/4/2 33/4/2
f 33/4/2 30/4/2 34/4/2
f 31/4/2 32/4/2 35/4/2
f 35/4/2 32/4/2 36/4/2
f 37/1/2 38/1/2 39/1/2
f 39/1/2 38/1/2 40/1/2
f 41/4/2 42/4/2 44/4/2
f 44/4/2 42/4/2 45/4/2
f 43/4/2 44/4/2 47/4/2
f 45/4/2 46/4/2 47/4/2
f 44/4/2 45/4/2 47/4/2
f 47/4/2 46/4/2 48/4/2
f 48/4/2 46/4/2 49/4/2
f 49/4/2 46/4/2 50/4/2
f 48/4/2 49/4/2 51/4/2
f 51/4/2 49/4/2 52/4/2
f 56/4/3 54/4/3 53/4/3
f 57/4/3 54/4/3 56/4/3
f 58/4/3 54/4/3 57/4/3
f 59/4/3 56/4/3 55/4/3
f 59/4/3 57/4/3 56/4/3
f 60/4/3 57/4/3 59/4/3
f 61/2/3 58/2/3 57/2/3
f 61/4/3 57/4/3 60/4/3
f 62/4/3 54/4/3 58/4/3
f 62/2/3 58/2/3 61/2/3
f 63/4/3 61/4/3 60/4/3
f 63/4/3 62/4/3 61/4/3
f 64/4/3 54/4/3 62/4/3
f 64/4/3 62/4/3 63/4/3
f 70/4/3 66/4/3 65/4/3
f 71/4/3 66/4/3 70/4/3
f 72/4/3 68/4/3 67/4/3
f 74/3/3 70/3/3 69/3/3
f 75/3/3 70/3/3 74/3/3
f 77/1/3 73/1/3 72/1/3
f 77/4/3 72/4/3 67/4/3
f 78/1/3 73/1/3 77/1/3
f 79/4/3 76/4/3 75/4/3
f 80/4/3 76/4/3 79/4/3
f 81/4/3 77/4/3 67/4/3
f 82/4/3 77/4/3 81/4/3
f 83/4/4 84/4/4 88/4/4
f 88/4/4 84/4/4 89/4/4
f 85/4/4 86/4/4 90/4/4
f 87/3/4 88/3/4 92/3/4
f 92/3/4 88/3/4 93/3/4
f 90/1/4 91/1/4 95/1/4
f 85/4/4 90/4/4 95/4/4
f 95/1/4 91/1/4 96/1/4
f 93/4/4 94/4/4 97/4/4
f 97/4/4 94/4/4 98/4/4
f 85/4/4 95/4/4 99/4/4
f 99/4/4 95/4/4 100/4/4
f 101/4/4 102/4/4 104/4/4
f 104/4/4 102/4/4 105/4/4
f 105/4/4 102/4/4 106/4/4
f 103/4/4 104/4/4 107/4/4
f 104/4/4 105/4/4 107/4/4
f 107/4/4 105/4/4 108/4/4
f 105/2/4 106/2/4 109/2/4
f 108/4/4 105/4/4 109/4/4
f 106/4/4 102/4/4 110/4/4
f 109/2/4 106/2/4 110/2/4
f 108/4/4 109/4/4 111/4/4
f 109/4/4 110/4/4 111/4/4
f 110/4/4 102/4/4 112/4/4
f 111/4/4 110/4/4 112/4/4
f 115/3/5 114/3/5 113/3/5
f 116/3/5 114/3/5 115/3/5
f 120/4/5 118/4/5 117/4/5
f 121/4/5 118/4/5 120/4/5
f 123/4/5 120/4/5 119/4/5
f 124/4/5 120/4/5 123/4/5
f 125/4/5 122/4/5 121/4/5
f 126/4/5 122/4/5 125/4/5
f 127/4/5 125/4/5 124/4/5
f 128/4/5 125/4/5 127/4/5
f 133/4/5 130/4/5 129/4/5
f 134/4/5 130/4/5 133/4/5
f 135/4/5 132/4/5 131/4/5
f 136/4/5 132/4/5 135/4/5
f 141/4/5 138/4/5 137/4/5
f 142/4/5 138/4/5 141/4/5
f 143/4/5 140/4/5 139/4/5
f 144/4/5 140/4/5 143/4/5
f 145/4/6 146/4/6 147/4/6
f 147/4/6 146/4/6 148/4/6
f 149/4/6 150/4/6 151/4/6
f 151/4/6 150/4/6 152/4/6
f 153/4/6 154/4/6 157/4/6
f 157/4/6 154/4/6 158/4/6
f 155/4/6 156/4/6 159/4/6
f 159/4/6 156/4/6 160/4/6
f 161/1/6 162/1/6 163/1/6
f 163/1/6 162/1/6 164/1/6
